<svg xmlns="http://www.w3.org/2000/svg" xmlns:xlink="http://www.w3.org/1999/xlink" xmlns:lucid="lucid" width="1412.53" height="726.18"><g transform="translate(-818.8457993348354 -410.02252819456896)" lucid:page-tab-id="0_0"><path d="M820.85 532.55a12 12 0 0 1 12-12h1384.53a12 12 0 0 1 12 12v589.65a12 12 0 0 1-12 12H832.85a12 12 0 0 1-12-12z" stroke="#979ea8" stroke-width="4" fill="#fff"/><path d="M820.85 424.02a12 12 0 0 1 12-12h334.92a12 12 0 0 1 12 12v72.53a12 12 0 0 1-12 12H832.85a12 12 0 0 1-12-12z" stroke="#979ea8" stroke-width="4" fill="#979ea8"/><use xlink:href="#a" transform="matrix(1,0,0,1,836.8457993348354,428.02252819456896) translate(0 51.90104166666667)"/><use xlink:href="#b" transform="matrix(1,0,0,1,836.8457993348354,428.02252819456896) translate(117.109375 51.90104166666667)"/><path d="M1021.04 722.05v9.77m0 9.77v19.53m0 9.76v19.53m0 9.77v19.53m0 9.77v19.54m0 9.76v19.54m0 9.77v19.54m0 9.77v19.55m0 9.77v19.53m0 9.77v19.54m0 9.76v19.54m0 9.77v19.53m0 9.77v9.77" stroke="#333" fill="none"/><path d="M1021.52 722.07h-.95v-.52h.95z" stroke="#333" stroke-width=".05" fill="#333"/><path d="M1021.04 1073.7v.5M1333.74 722.05l.02 9.77m.02 9.77l.03 19.53m.03 9.76l.03 19.53m.02 9.77l.03 19.53m.03 9.77l.03 19.54m.02 9.76l.03 19.54m.03 9.77l.03 19.54m.02 9.77l.03 19.55m.03 9.77l.03 19.53m.02 9.77l.03 19.54m.03 9.76l.04 19.54m0 9.77l.05 19.53m0 9.77l.03 9.77" stroke="#333" fill="none"/><path d="M1334.22 722.07h-.95v-.52h.95z" stroke="#333" stroke-width=".05" fill="#333"/><path d="M1334.35 1073.7v.5M1693.5 722.05v9.77m0 9.77v19.53m0 9.76v19.53m0 9.77v19.53m0 9.77v19.54m0 9.76v19.54m0 9.77v19.54m0 9.77v19.55m0 9.77v19.53m0 9.77v19.54m0 9.76v19.54m0 9.77v19.53m0 9.77v9.77" stroke="#333" fill="none"/><path d="M1693.98 722.07h-.95v-.52h.95z" stroke="#333" stroke-width=".05" fill="#333"/><path d="M1693.5 1073.7v.5" stroke="#333" fill="none"/><path d="M1674.35 922.2a8 8 0 0 1 8-8h24a8 8 0 0 1 8 8v124a8 8 0 0 1-8 8h-24a8 8 0 0 1-8-8z" stroke="#6db1ff" stroke-width="2" fill="#ced4db"/><path d="M2053.26 722.05v9.77m0 9.77v19.53m0 9.76v19.53m0 9.77v19.53m0 9.77v19.54m0 9.76v19.54m0 9.77v19.54m0 9.77v19.55m0 9.77v19.53m0 9.77v19.54m0 9.76v19.54m0 9.77v19.53m0 9.77v9.77" stroke="#333" fill="none"/><path d="M2053.74 722.07h-.95v-.52h.94z" stroke="#333" stroke-width=".05" fill="#333"/><path d="M2053.26 1073.7v.5" stroke="#333" fill="none"/><path d="M1313.74 798.28a8 8 0 0 1 8-8h24a8 8 0 0 1 8 8V986.2a8 8 0 0 1-8 8h-24a8 8 0 0 1-8-8z" stroke="#6db1ff" stroke-width="2" fill="#ced4db"/><path d="M1598.47 608.55a8 8 0 0 1 8-8h174.07a8 8 0 0 1 8 8v105a8 8 0 0 1-8 8h-174.07a8 8 0 0 1-8-8z" stroke="#000" stroke-opacity="0" fill="#6db1ff"/><use xlink:href="#c" transform="matrix(1,0,0,1,1606.4671864293207,608.553778194569) translate(33.03203124999998 58.51432291666667)"/><path d="M1914.35 608.55a8 8 0 0 1 8-8h261.83a8 8 0 0 1 8 8v105a8 8 0 0 1-8 8h-261.83a8 8 0 0 1-8-8z" stroke="#000" stroke-opacity="0" fill="#6db1ff"/><use xlink:href="#d" transform="matrix(1,0,0,1,1922.3500142292398,608.553778194569) translate(13.724739583333331 58.51432291666667)"/><path d="M1042.54 824.17h253.81" stroke="#333" fill="none"/><path d="M1042.55 824.65h-.5v-.95h.5z" stroke="#333" stroke-width=".05" fill="#333"/><path d="M1311.13 824.17l-14.27 4.64v-9.26z" stroke="#333" fill="#333"/><use xlink:href="#e" transform="matrix(1,0,0,1,1097.8985550381567,800.1679284948469) translate(0.0049999999999954525 16.01666666666667)"/><path d="M1355.24 969.86h301.73" stroke="#333" fill="none"/><path d="M1355.26 970.34h-.52v-.95h.52z" stroke="#333" stroke-width=".05" fill="#333"/><path d="M1671.73 969.86l-14.26 4.64v-9.27z" stroke="#333" fill="#333"/><use xlink:href="#f" transform="matrix(1,0,0,1,1453.4882094646305,945.859118219766) translate(0.005000000000002558 16.01666666666667)"/><path d="M1214.35 608.55a8 8 0 0 1 8-8h222.8a8 8 0 0 1 8 8v105a8 8 0 0 1-8 8h-222.8a8 8 0 0 1-8-8z" stroke="#000" stroke-opacity="0" fill="#6db1ff"/><use xlink:href="#g" transform="matrix(1,0,0,1,1222.3500142292398,608.553778194569) translate(4.81640625 58.51432291666667)"/><path d="M920.62 608.55a8 8 0 0 1 8-8h184.84a8 8 0 0 1 8 8v105a8 8 0 0 1-8 8H928.62a8 8 0 0 1-8-8z" stroke="#000" stroke-opacity="0" fill="#6db1ff"/><use xlink:href="#h" transform="matrix(1,0,0,1,928.6206487669133,608.553778194569) translate(49.85481770833333 58.51432291666667)"/><path d="M1001.04 798.28a8 8 0 0 1 8-8h24a8 8 0 0 1 8 8V1052a8 8 0 0 1-8 8h-24a8 8 0 0 1-8-8z" stroke="#6db1ff" stroke-width="2" fill="#ced4db"/><path d="M1456.47 842.2a8 8 0 0 1 8-8h98.3a8 8 0 0 1 8 8v64a8 8 0 0 1-8 8h-98.3a8 8 0 0 1-8-8z" stroke="#000" stroke-opacity="0" fill="#6db1ff"/><use xlink:href="#i" transform="matrix(1,0,0,1,1464.4684848818067,842.199694027653) translate(7.355338541666654 38.01432291666667)"/><path d="M1440.1 855.83h-84.86" stroke="#3a414a" fill="none"/><path d="M1454.85 855.83l-14.26 4.64v-9.27z" stroke="#3a414a" fill="#3a414a"/><path d="M1355.26 856.3h-.52v-.94h.52z" stroke="#3a414a" stroke-width=".05" fill="#3a414a"/><use xlink:href="#j" transform="matrix(1,0,0,1,1361.7994241107856,828.3759200771959) translate(0.005000000000002558 15.069444444444446)"/><path d="M1456.05 907.27h-4.7m-4.73 0h-9.44m-4.72 0h-9.43m-4.72 0h-9.43m-4.72 0h-9.43m-4.72 0h-9.44m-4.7 0h-4.73" stroke="#3a414a" fill="none"/><path d="M1456.57 907.45l.07.3h-.6v-.95h.48z" stroke="#3a414a" stroke-width=".05" fill="#3a414a"/><path d="M1356.36 907.27l14.27-4.63v9.27z" stroke="#3a414a" fill="#3a414a"/><use xlink:href="#k" transform="matrix(1,0,0,1,1398.8354421819972,884.4493728688691) translate(0.004999999999999893 15.069444444444446)"/><path d="M2033.27 988a8 8 0 0 1 8-8h24a8 8 0 0 1 8 8v58.2a8 8 0 0 1-8 8h-24a8 8 0 0 1-8-8z" stroke="#6db1ff" stroke-width="2" fill="#ced4db"/><path d="M1715.85 1016.44h300.04" stroke="#333" fill="none"/><path d="M1715.86 1016.92h-.5v-.95h.5z" stroke="#333" stroke-width=".05" fill="#333"/><path d="M2030.65 1016.44l-14.27 4.64v-9.27z" stroke="#333" fill="#333"/><use xlink:href="#l" transform="matrix(1,0,0,1,1845.7704083589922,992.4376142125511) translate(0.004999999999999005 16.01666666666667)"/><path d="M1913.85 661.05h-94.93" stroke="#3a414a" fill="none"/><path d="M1914.35 661.53h-.5v-.95h.5z" stroke="#3a414a" stroke-width=".05" fill="#3a414a"/><path d="M1789.25 661.05l14.85 14.85 14.85-14.85-14.85-14.84z" stroke="#3a414a" fill="#3a414a"/><defs><path d="M52 0l541-1490h220L1361 0h-200l-149-416H398L254 0H52zm404-582h497c-103-290-145-390-251-756-108 377-145 460-246 756" id="m"/><path d="M577 24c-279 0-473-224-473-580 0-354 195-576 474-576 218 0 287 134 324 193h14v-551h180V0H922v-173h-20C865-111 790 24 577 24zm27-161c203 0 314-172 314-421 0-247-108-413-314-413-212 0-317 181-317 413 0 235 108 421 317 421" id="n"/><g id="a"><use transform="matrix(0.026041666666666668,0,0,0.026041666666666668,0,0)" xlink:href="#m"/><use transform="matrix(0.026041666666666668,0,0,0.026041666666666668,36.796875,0)" xlink:href="#n"/><use transform="matrix(0.026041666666666668,0,0,0.026041666666666668,69.453125,0)" xlink:href="#n"/></g><path d="M180 0v-1490h270l367 940c28 72 75 218 110 339 35-117 81-264 110-339l362-940h271V0h-187c2-448-5-837 7-1287-157 497-311 829-483 1287H842C666-458 514-784 354-1284c12 438 5 843 7 1284H180" id="o"/><path d="M628 24c-324 0-524-230-524-574 0-343 198-582 503-582 237 0 487 146 487 559v75H286c9 234 145 362 343 362 132 0 231-58 273-172l174 48C1024-91 857 24 628 24zM287-650h624c-17-190-120-322-304-322-192 0-309 151-320 322" id="p"/><path d="M158 0v-1118h175l1 205c55-151 181-225 313-225 147 0 245 90 285 228 53-141 190-228 352-228 194 0 352 125 352 384V0h-181v-749c0-161-105-225-225-225-151 0-243 103-243 244V0H807v-767c0-124-93-207-219-207-131 0-250 92-250 270V0H158" id="q"/><path d="M677 24c-213 0-288-135-325-197h-20V0H158v-1490h180v551h14c37-59 106-193 324-193 279 0 474 222 474 576 0 356-194 580-473 580zm-27-161c209 0 317-186 317-421 0-232-105-413-317-413-206 0-314 166-314 413 0 249 111 421 314 421" id="r"/><path d="M158 0v-1118h174v172h12c41-113 157-188 290-188 26 0 70 2 91 3v181c-11-2-60-10-108-10-161 0-279 109-279 260V0H158" id="s"/><g id="b"><use transform="matrix(0.026041666666666668,0,0,0.026041666666666668,0,0)" xlink:href="#o"/><use transform="matrix(0.026041666666666668,0,0,0.026041666666666668,48.177083333333336,0)" xlink:href="#p"/><use transform="matrix(0.026041666666666668,0,0,0.026041666666666668,79.27083333333334,0)" xlink:href="#q"/><use transform="matrix(0.026041666666666668,0,0,0.026041666666666668,125.98958333333334,0)" xlink:href="#r"/><use transform="matrix(0.026041666666666668,0,0,0.026041666666666668,158.64583333333334,0)" xlink:href="#p"/><use transform="matrix(0.026041666666666668,0,0,0.026041666666666668,189.73958333333334,0)" xlink:href="#s"/></g><path d="M338-1490V0H158v-1490h180" id="t"/><path d="M158 0v-1118h180V0H158zm91-1301c-68 0-125-53-125-119s57-119 125-119c69 0 126 53 126 119s-57 119-126 119" id="u"/><path d="M471 26C259 26 90-98 90-318c0-256 228-303 435-329 202-27 287-16 287-108 0-139-79-219-234-219-161 0-248 86-283 164l-173-57c86-203 278-265 451-265 150 0 419 46 419 395V0H815v-152h-12C765-73 660 26 471 26zm31-159c199 0 310-134 310-271v-155c-30 35-226 55-295 64-131 17-246 59-246 186 0 116 97 176 231 176" id="v"/><path d="M140 405l46-156c120 36 205 19 263-150l32-93L54-1118h197c107 313 237 620 324 950 87-331 219-637 326-950h196L606 167c-68 178-176 259-334 259-64 0-113-12-132-21" id="w"/><path d="M295 13c-75 0-135-60-135-135s60-135 135-135 135 60 135 135S370 13 295 13zm0-809c-75 0-135-60-135-135s60-135 135-135 135 60 135 135-60 135-135 135" id="x"/><path d="M180 0v-1490h190v1322h690V0H180" id="y"/><g id="c"><use transform="matrix(0.008072916666666667,0,0,0.008072916666666667,0,0)" xlink:href="#t"/><use transform="matrix(0.008072916666666667,0,0,0.008072916666666667,4.004166666666667,0)" xlink:href="#u"/><use transform="matrix(0.008072916666666667,0,0,0.008072916666666667,8.008333333333335,0)" xlink:href="#r"/><use transform="matrix(0.008072916666666667,0,0,0.008072916666666667,18.131770833333334,0)" xlink:href="#s"/><use transform="matrix(0.008072916666666667,0,0,0.008072916666666667,24.355989583333333,0)" xlink:href="#v"/><use transform="matrix(0.008072916666666667,0,0,0.008072916666666667,33.63984375,0)" xlink:href="#s"/><use transform="matrix(0.008072916666666667,0,0,0.008072916666666667,40.12239583333333,0)" xlink:href="#w"/><use transform="matrix(0.008072916666666667,0,0,0.008072916666666667,49.41432291666666,0)" xlink:href="#x"/><use transform="matrix(0.008072916666666667,0,0,0.008072916666666667,54.17734375,0)" xlink:href="#y"/><use transform="matrix(0.008072916666666667,0,0,0.008072916666666667,63.52578125,0)" xlink:href="#u"/><use transform="matrix(0.008072916666666667,0,0,0.008072916666666667,67.52994791666667,0)" xlink:href="#r"/><use transform="matrix(0.008072916666666667,0,0,0.008072916666666667,77.65338541666668,0)" xlink:href="#s"/><use transform="matrix(0.008072916666666667,0,0,0.008072916666666667,83.87760416666669,0)" xlink:href="#v"/><use transform="matrix(0.008072916666666667,0,0,0.008072916666666667,93.16145833333336,0)" xlink:href="#s"/><use transform="matrix(0.008072916666666667,0,0,0.008072916666666667,99.6440104166667,0)" xlink:href="#w"/></g><path d="M538 24C308 24 148-78 108-271l171-41c32 123 123 178 257 178 156 0 256-77 256-169 0-77-54-128-164-154l-186-44c-203-48-300-148-300-305 0-192 176-326 414-326 230 0 351 112 402 269l-163 42c-31-80-94-158-238-158-133 0-233 69-233 162 0 83 57 129 188 160l169 40c203 48 298 149 298 302 0 196-179 339-441 339" id="z"/><path d="M598-1118v154H368v674c0 100 37 144 132 144 23 0 62-6 92-12L629-6c-37 13-88 20-134 20-193 0-307-107-307-290v-688H20v-154h168v-266h180v266h230" id="A"/><path d="M174-520v-126l944-476v196L406-588v12l712 338v194" id="B"/><path d="M1181-520L237-44v-194l712-338v-12L237-926v-196l944 476v126" id="C"/><g id="d"><use transform="matrix(0.008072916666666667,0,0,0.008072916666666667,0,0)" xlink:href="#q"/><use transform="matrix(0.008072916666666667,0,0,0.008072916666666667,14.482812500000001,0)" xlink:href="#p"/><use transform="matrix(0.008072916666666667,0,0,0.008072916666666667,24.121875000000003,0)" xlink:href="#q"/><use transform="matrix(0.008072916666666667,0,0,0.008072916666666667,38.604687500000004,0)" xlink:href="#r"/><use transform="matrix(0.008072916666666667,0,0,0.008072916666666667,48.728125000000006,0)" xlink:href="#p"/><use transform="matrix(0.008072916666666667,0,0,0.008072916666666667,58.36718750000001,0)" xlink:href="#s"/><use transform="matrix(0.008072916666666667,0,0,0.008072916666666667,64.59140625,0)" xlink:href="#z"/><use transform="matrix(0.008072916666666667,0,0,0.008072916666666667,73.31822916666667,0)" xlink:href="#x"/><use transform="matrix(0.008072916666666667,0,0,0.008072916666666667,78.08125,0)" xlink:href="#m"/><use transform="matrix(0.008072916666666667,0,0,0.008072916666666667,89.48828125,0)" xlink:href="#s"/><use transform="matrix(0.008072916666666667,0,0,0.008072916666666667,95.97083333333335,0)" xlink:href="#s"/><use transform="matrix(0.008072916666666667,0,0,0.008072916666666667,102.19505208333335,0)" xlink:href="#v"/><use transform="matrix(0.008072916666666667,0,0,0.008072916666666667,111.23671875000002,0)" xlink:href="#w"/><use transform="matrix(0.008072916666666667,0,0,0.008072916666666667,120.60937500000003,0)" xlink:href="#y"/><use transform="matrix(0.008072916666666667,0,0,0.008072916666666667,129.95781250000002,0)" xlink:href="#u"/><use transform="matrix(0.008072916666666667,0,0,0.008072916666666667,133.96197916666668,0)" xlink:href="#z"/><use transform="matrix(0.008072916666666667,0,0,0.008072916666666667,142.68880208333334,0)" xlink:href="#A"/><use transform="matrix(0.008072916666666667,0,0,0.008072916666666667,147.62942708333333,0)" xlink:href="#B"/><use transform="matrix(0.008072916666666667,0,0,0.008072916666666667,158.56822916666667,0)" xlink:href="#o"/><use transform="matrix(0.008072916666666667,0,0,0.008072916666666667,173.503125,0)" xlink:href="#p"/><use transform="matrix(0.008072916666666667,0,0,0.008072916666666667,183.1421875,0)" xlink:href="#q"/><use transform="matrix(0.008072916666666667,0,0,0.008072916666666667,197.625,0)" xlink:href="#r"/><use transform="matrix(0.008072916666666667,0,0,0.008072916666666667,207.7484375,0)" xlink:href="#p"/><use transform="matrix(0.008072916666666667,0,0,0.008072916666666667,217.3875,0)" xlink:href="#s"/><use transform="matrix(0.008072916666666667,0,0,0.008072916666666667,223.61171875,0)" xlink:href="#C"/></g><path d="M218-607c0-325 108-727 258-974h175c-155 315-250 682-250 974 0 265 78 531 250 886H476C306-10 218-315 218-607" id="D"/><path d="M232-923l-22-567h194l-22 567H232zm340 0l-22-567h194l-22 567H572" id="E"/><path d="M613 24c-304 0-509-231-509-576 0-350 205-580 509-580 216 0 392 114 453 309l-173 49c-33-115-133-197-280-197-223 0-326 196-326 419 0 220 103 415 326 415 150 0 252-85 285-206l172 49C1010-95 832 24 613 24" id="F"/><path d="M96 279C273-86 346-350 346-607c0-292-95-659-250-974h175c150 246 258 650 258 974 0 297-91 602-258 886H96" id="G"/><g id="e"><use transform="matrix(0.008072916666666667,0,0,0.008072916666666667,0,0)" xlink:href="#v"/><use transform="matrix(0.008072916666666667,0,0,0.008072916666666667,9.283854166666668,0)" xlink:href="#n"/><use transform="matrix(0.008072916666666667,0,0,0.008072916666666667,19.40729166666667,0)" xlink:href="#n"/><use transform="matrix(0.008072916666666667,0,0,0.008072916666666667,29.53072916666667,0)" xlink:href="#o"/><use transform="matrix(0.008072916666666667,0,0,0.008072916666666667,44.465625,0)" xlink:href="#p"/><use transform="matrix(0.008072916666666667,0,0,0.008072916666666667,54.104687500000004,0)" xlink:href="#q"/><use transform="matrix(0.008072916666666667,0,0,0.008072916666666667,68.5875,0)" xlink:href="#r"/><use transform="matrix(0.008072916666666667,0,0,0.008072916666666667,78.7109375,0)" xlink:href="#p"/><use transform="matrix(0.008072916666666667,0,0,0.008072916666666667,88.35,0)" xlink:href="#s"/><use transform="matrix(0.008072916666666667,0,0,0.008072916666666667,94.57421875,0)" xlink:href="#D"/><use transform="matrix(0.008072916666666667,0,0,0.008072916666666667,100.6046875,0)" xlink:href="#E"/><use transform="matrix(0.008072916666666667,0,0,0.008072916666666667,106.9984375,0)" xlink:href="#m"/><use transform="matrix(0.008072916666666667,0,0,0.008072916666666667,118.40546875,0)" xlink:href="#t"/><use transform="matrix(0.008072916666666667,0,0,0.008072916666666667,122.40963541666666,0)" xlink:href="#u"/><use transform="matrix(0.008072916666666667,0,0,0.008072916666666667,126.41380208333332,0)" xlink:href="#F"/><use transform="matrix(0.008072916666666667,0,0,0.008072916666666667,135.85911458333334,0)" xlink:href="#p"/><use transform="matrix(0.008072916666666667,0,0,0.008072916666666667,145.25598958333333,0)" xlink:href="#E"/><use transform="matrix(0.008072916666666667,0,0,0.008072916666666667,152.95755208333333,0)" xlink:href="#G"/></g><g id="f"><use transform="matrix(0.008072916666666667,0,0,0.008072916666666667,0,0)" xlink:href="#v"/><use transform="matrix(0.008072916666666667,0,0,0.008072916666666667,9.283854166666668,0)" xlink:href="#n"/><use transform="matrix(0.008072916666666667,0,0,0.008072916666666667,19.40729166666667,0)" xlink:href="#n"/><use transform="matrix(0.008072916666666667,0,0,0.008072916666666667,29.53072916666667,0)" xlink:href="#o"/><use transform="matrix(0.008072916666666667,0,0,0.008072916666666667,44.465625,0)" xlink:href="#p"/><use transform="matrix(0.008072916666666667,0,0,0.008072916666666667,54.104687500000004,0)" xlink:href="#q"/><use transform="matrix(0.008072916666666667,0,0,0.008072916666666667,68.5875,0)" xlink:href="#r"/><use transform="matrix(0.008072916666666667,0,0,0.008072916666666667,78.7109375,0)" xlink:href="#p"/><use transform="matrix(0.008072916666666667,0,0,0.008072916666666667,88.35,0)" xlink:href="#s"/><use transform="matrix(0.008072916666666667,0,0,0.008072916666666667,94.57421875,0)" xlink:href="#D"/><use transform="matrix(0.008072916666666667,0,0,0.008072916666666667,100.6046875,0)" xlink:href="#q"/><use transform="matrix(0.008072916666666667,0,0,0.008072916666666667,115.0875,0)" xlink:href="#G"/></g><path d="M338-670V0H158v-1118h173l1 207c72-158 192-221 342-221 226 0 378 139 378 422V0H872v-695c0-172-96-275-252-275-161 0-282 109-282 300" id="H"/><path d="M783 20c-382 0-661-292-661-764 0-473 279-766 661-766 302 0 548 182 601 489h-190c-42-204-217-313-411-313-268 0-476 208-476 590 0 381 209 588 476 588 195 0 369-110 411-313h190c-52 303-296 489-601 489" id="I"/><path d="M613 24c-304 0-509-231-509-576 0-350 205-580 509-580 305 0 511 230 511 580 0 345-206 576-511 576zm0-161c226 0 329-195 329-415 0-222-103-419-329-419-223 0-326 196-326 419 0 220 103 415 326 415" id="J"/><g id="g"><use transform="matrix(0.008072916666666667,0,0,0.008072916666666667,0,0)" xlink:href="#t"/><use transform="matrix(0.008072916666666667,0,0,0.008072916666666667,4.004166666666667,0)" xlink:href="#u"/><use transform="matrix(0.008072916666666667,0,0,0.008072916666666667,8.008333333333335,0)" xlink:href="#r"/><use transform="matrix(0.008072916666666667,0,0,0.008072916666666667,18.131770833333334,0)" xlink:href="#s"/><use transform="matrix(0.008072916666666667,0,0,0.008072916666666667,24.355989583333333,0)" xlink:href="#v"/><use transform="matrix(0.008072916666666667,0,0,0.008072916666666667,33.63984375,0)" xlink:href="#s"/><use transform="matrix(0.008072916666666667,0,0,0.008072916666666667,40.12239583333333,0)" xlink:href="#u"/><use transform="matrix(0.008072916666666667,0,0,0.008072916666666667,44.1265625,0)" xlink:href="#v"/><use transform="matrix(0.008072916666666667,0,0,0.008072916666666667,53.41041666666666,0)" xlink:href="#H"/><use transform="matrix(0.008072916666666667,0,0,0.008072916666666667,63.178645833333334,0)" xlink:href="#x"/><use transform="matrix(0.008072916666666667,0,0,0.008072916666666667,67.94166666666666,0)" xlink:href="#y"/><use transform="matrix(0.008072916666666667,0,0,0.008072916666666667,77.29010416666667,0)" xlink:href="#u"/><use transform="matrix(0.008072916666666667,0,0,0.008072916666666667,81.29427083333333,0)" xlink:href="#r"/><use transform="matrix(0.008072916666666667,0,0,0.008072916666666667,91.41770833333334,0)" xlink:href="#s"/><use transform="matrix(0.008072916666666667,0,0,0.008072916666666667,97.64192708333334,0)" xlink:href="#v"/><use transform="matrix(0.008072916666666667,0,0,0.008072916666666667,106.92578125000001,0)" xlink:href="#s"/><use transform="matrix(0.008072916666666667,0,0,0.008072916666666667,113.40833333333336,0)" xlink:href="#u"/><use transform="matrix(0.008072916666666667,0,0,0.008072916666666667,117.41250000000002,0)" xlink:href="#v"/><use transform="matrix(0.008072916666666667,0,0,0.008072916666666667,126.6963541666667,0)" xlink:href="#H"/><use transform="matrix(0.008072916666666667,0,0,0.008072916666666667,136.46458333333337,0)" xlink:href="#I"/><use transform="matrix(0.008072916666666667,0,0,0.008072916666666667,148.54166666666669,0)" xlink:href="#J"/><use transform="matrix(0.008072916666666667,0,0,0.008072916666666667,158.45520833333336,0)" xlink:href="#H"/><use transform="matrix(0.008072916666666667,0,0,0.008072916666666667,168.22343750000002,0)" xlink:href="#A"/><use transform="matrix(0.008072916666666667,0,0,0.008072916666666667,173.63229166666667,0)" xlink:href="#s"/><use transform="matrix(0.008072916666666667,0,0,0.008072916666666667,179.58203125,0)" xlink:href="#J"/><use transform="matrix(0.008072916666666667,0,0,0.008072916666666667,189.49557291666667,0)" xlink:href="#t"/><use transform="matrix(0.008072916666666667,0,0,0.008072916666666667,193.49973958333334,0)" xlink:href="#t"/><use transform="matrix(0.008072916666666667,0,0,0.008072916666666667,197.50390625,0)" xlink:href="#p"/><use transform="matrix(0.008072916666666667,0,0,0.008072916666666667,207.14296875,0)" xlink:href="#s"/></g><path d="M158 418v-1536h174v179h20c37-59 106-193 324-193 279 0 474 222 474 576 0 356-194 580-473 580-213 0-288-135-325-197h-14v591H158zm492-555c209 0 317-186 317-421 0-232-105-413-317-413-206 0-314 166-314 413 0 249 111 421 314 421" id="K"/><g id="h"><use transform="matrix(0.008072916666666667,0,0,0.008072916666666667,0,0)" xlink:href="#y"/><use transform="matrix(0.008072916666666667,0,0,0.008072916666666667,9.348437500000001,0)" xlink:href="#u"/><use transform="matrix(0.008072916666666667,0,0,0.008072916666666667,13.35260416666667,0)" xlink:href="#r"/><use transform="matrix(0.008072916666666667,0,0,0.008072916666666667,23.47604166666667,0)" xlink:href="#s"/><use transform="matrix(0.008072916666666667,0,0,0.008072916666666667,29.700260416666673,0)" xlink:href="#v"/><use transform="matrix(0.008072916666666667,0,0,0.008072916666666667,38.98411458333334,0)" xlink:href="#s"/><use transform="matrix(0.008072916666666667,0,0,0.008072916666666667,45.46666666666667,0)" xlink:href="#w"/><use transform="matrix(0.008072916666666667,0,0,0.008072916666666667,53.63645833333334,0)" xlink:href="#m"/><use transform="matrix(0.008072916666666667,0,0,0.008072916666666667,65.04348958333334,0)" xlink:href="#K"/><use transform="matrix(0.008072916666666667,0,0,0.008072916666666667,75.16692708333335,0)" xlink:href="#K"/></g><g id="i"><use transform="matrix(0.008072916666666667,0,0,0.008072916666666667,0,0)" xlink:href="#q"/><use transform="matrix(0.008072916666666667,0,0,0.008072916666666667,14.482812500000001,0)" xlink:href="#x"/><use transform="matrix(0.008072916666666667,0,0,0.008072916666666667,19.24583333333334,0)" xlink:href="#o"/><use transform="matrix(0.008072916666666667,0,0,0.008072916666666667,34.18072916666667,0)" xlink:href="#p"/><use transform="matrix(0.008072916666666667,0,0,0.008072916666666667,43.819791666666674,0)" xlink:href="#q"/><use transform="matrix(0.008072916666666667,0,0,0.008072916666666667,58.302604166666676,0)" xlink:href="#r"/><use transform="matrix(0.008072916666666667,0,0,0.008072916666666667,68.42604166666668,0)" xlink:href="#p"/><use transform="matrix(0.008072916666666667,0,0,0.008072916666666667,78.06510416666669,0)" xlink:href="#s"/></g><g id="j"><use transform="matrix(0.007595486111111112,0,0,0.007595486111111112,0,0)" xlink:href="#B"/><use transform="matrix(0.007595486111111112,0,0,0.007595486111111112,10.291883680555557,0)" xlink:href="#B"/><use transform="matrix(0.007595486111111112,0,0,0.007595486111111112,20.583767361111114,0)" xlink:href="#F"/><use transform="matrix(0.007595486111111112,0,0,0.007595486111111112,29.470486111111114,0)" xlink:href="#s"/><use transform="matrix(0.007595486111111112,0,0,0.007595486111111112,35.068359375,0)" xlink:href="#p"/><use transform="matrix(0.007595486111111112,0,0,0.007595486111111112,44.289279513888886,0)" xlink:href="#v"/><use transform="matrix(0.007595486111111112,0,0,0.007595486111111112,53.024088541666664,0)" xlink:href="#A"/><use transform="matrix(0.007595486111111112,0,0,0.007595486111111112,57.961154513888886,0)" xlink:href="#p"/><use transform="matrix(0.007595486111111112,0,0,0.007595486111111112,67.03016493055556,0)" xlink:href="#C"/><use transform="matrix(0.007595486111111112,0,0,0.007595486111111112,77.32204861111111,0)" xlink:href="#C"/></g><use transform="matrix(0.007595486111111112,0,0,0.007595486111111112,0,0)" xlink:href="#q" id="k"/><g id="l"><use transform="matrix(0.008072916666666667,0,0,0.008072916666666667,0,0)" xlink:href="#v"/><use transform="matrix(0.008072916666666667,0,0,0.008072916666666667,9.283854166666668,0)" xlink:href="#n"/><use transform="matrix(0.008072916666666667,0,0,0.008072916666666667,19.40729166666667,0)" xlink:href="#n"/><use transform="matrix(0.008072916666666667,0,0,0.008072916666666667,29.53072916666667,0)" xlink:href="#D"/><use transform="matrix(0.008072916666666667,0,0,0.008072916666666667,35.56119791666667,0)" xlink:href="#q"/><use transform="matrix(0.008072916666666667,0,0,0.008072916666666667,50.04401041666667,0)" xlink:href="#G"/></g></defs></g></svg>