<svg xmlns="http://www.w3.org/2000/svg" xmlns:xlink="http://www.w3.org/1999/xlink" xmlns:lucid="lucid" width="2030.72" height="2727.52"><g transform="translate(308.71759792533146 802.0156103040094)" lucid:page-tab-id="0_0"><path d="M-306.72-679.48a12 12 0 0 1 12-12H1708a12 12 0 0 1 12 12V1908a12 12 0 0 1-12 12H-294.72a12 12 0 0 1-12-12z" stroke="#979ea8" stroke-width="4" fill="#fff"/><path d="M-306.72-788.02a12 12 0 0 1 12-12H38.05a12 12 0 0 1 12 12v72.54a12 12 0 0 1-12 12h-332.77a12 12 0 0 1-12-12z" stroke="#979ea8" stroke-width="4" fill="#979ea8"/><use xlink:href="#a" transform="matrix(1,0,0,1,-290.71759792533146,-784.0156103040094) translate(0 51.90104166666667)"/><use xlink:href="#b" transform="matrix(1,0,0,1,-290.71759792533146,-784.0156103040094) translate(196.640625 51.90104166666667)"/><path d="M206.18-489.98v10.04m0 10.05v20.1m0 10.06v20.1m0 10.04v20.1m0 10.04v20.1m0 10.05v20.08m0 10.05v20.1m0 10.04v20.1m0 10.05v20.1m0 10.04v20.1m0 10.04v20.1m0 10.05v20.1m0 10.04v20.1m0 10.03v20.1m0 10.05v20.1m0 10.04v20.1m0 10.05v20.1m0 10.04v20.1m0 10.05v20.1m0 10.04v20.1m0 10.04v20.1m0 10.04v20.1m0 10.05v20.1m0 10.04v20.1m0 10.04v20.1m0 10.06v20.1m0 10.04v20.1m0 10.04v20.1m0 10.05v20.08m0 10.05v20.1m0 10.04v20.1m0 10.05v20.1m0 10.04v20.1m0 10.04v20.1m0 10.05v20.1m0 10.04v20.1m0 10.04v20.1m0 10.04v20.1m0 10.04v20.1m0 10.05v20.1m0 10.04v20.1m0 10.05v20.1m0 10.05v20.1m0 10.04v20.1m0 10.04l-.02 20.1m0 10.05v20.1m0 10.04v20.1m0 10.05v20.1m0 10.04v20.1m0 10.04v20.1m0 10.04v20.1m0 10.05v20.1m0 10.03v20.1m0 10.05v20.1m0 10.04v20.1m0 10.04v20.1m0 10.05v20.1m0 10.05v20.1m0 10.04v20.1m0 10.04v20.1m0 10.04v20.1m0 10.04v20.1m0 10.05v20.1m0 10.04v20.1m0 10.06v20.1m0 10.04v20.1m0 10.04v20.1m0 10.05v20.08m0 10.05v20.1m0 10.04v20.1m0 10.05v20.1m0 10.04v20.1m0 10.04v20.1m0 10.05v20.1m0 10.04v20.1m0 10.03v20.1m0 10.05v20.1m0 10.04v20.1m0 10.05v20.1m0 10.04v20.1m0 10.05v10.05" stroke="#333" fill="none"/><path d="M206.66-489.97h-.95v-.5h.96zM206.63 1921.5v.5h-.95v-.5z" stroke="#333" stroke-width=".05" fill="#333"/><path d="M573.3-489.98v10.04m0 10.04v20.07m0 10.04v20.1m0 10.03v20.08m0 10.05v20.08m0 10.04v20.08m0 10.04v20.07m0 10.04v20.08m0 10.05V-239m0 10.04v20.08m0 10.04v20.08m0 10.04v20.08m0 10.04v20.08m0 10.04v20.08m0 10.04v20.08m0 10.03v20.08m0 10.04V1.95m0 10.04v20.07m0 10.04v20.1m0 10.03V92.3m0 10.05v20.08m0 10.04v20.07m0 10.04v20.08m0 10.04v20.08m0 10.04v20.08m0 10.04v20.08m0 10.04v20.08m0 10.04v20.08m0 10.04v20.07m0 10.04v20.1m0 10.03v20.08m0 10.05v20.08m0 10.04v20.08m0 10.04v20.07m0 10.04v20.1m0 10.03v20.08m0 10.04v20.08m0 10.04v20.08m0 10.04v20.08m0 10.04v20.08m0 10.04v20.08m0 10.04v20.08m0 10.04v20.07m0 10.04v20.08m0 10.04v20.07m0 10.04v20.1m0 10.03v20.08m0 10.05v20.08m0 10.04v20.08m0 10.03v20.08m0 10.04v20.08m0 10.04v20.08m0 10.04v20.08m0 10.04v20.08m0 10.04v20.08m0 10.04v20.08m0 10.04v20.07m0 10.03v20.08m0 10.05v20.08m0 10.04v20.08m0 10.04v20.07m0 10.04v20.1m0 10.03v20.08m0 10.04v20.08m0 10.04v20.08m0 10.04v20.08m0 10.04v20.08m0 10.04V1538m0 10.04v20.08m0 10.04v20.07m0 10.05v20.07m0 10.04v20.07m0 10.04v20.1m0 10.03v20.08m0 10.05v20.08m0 10.04v20.08m0 10.04v20.07m0 10.04v20.08m0 10.04v20.08m0 10.04v20.08m0 10.04v10.04" stroke="#333" fill="none"/><path d="M573.8-489.97h-.96v-.5h.95z" stroke="#333" stroke-width=".05" fill="#333"/><path d="M573.3 1919.5v.5M-106.52-489.98v10.04m0 10.04v20.07m0 10.04v20.1m0 10.03v20.08m0 10.05v20.08m0 10.04v20.08m0 10.04v20.07m0 10.04v20.08m0 10.05V-239m0 10.04v20.08m0 10.04v20.08m0 10.04v20.08m0 10.04v20.08m0 10.04v20.08m0 10.04v20.08m0 10.03v20.08m0 10.04V1.95m0 10.04v20.07m0 10.04v20.1m0 10.03V92.3m0 10.05v20.08m0 10.04v20.07m0 10.04v20.08m0 10.04v20.08m0 10.04v20.08m0 10.04v20.08m0 10.04v20.08m0 10.04v20.08m0 10.04v20.07m0 10.04v20.1m0 10.03v20.08m0 10.05v20.08m0 10.04v20.08m0 10.04v20.07m0 10.04v20.1m0 10.03v20.08m0 10.04v20.08m0 10.04v20.08m0 10.04v20.08m0 10.04v20.08m0 10.04v20.08m0 10.04v20.08m0 10.04v20.07m0 10.04v20.08m0 10.04v20.07m0 10.04v20.1m0 10.03v20.08m0 10.05v20.08m0 10.04v20.08m0 10.03v20.08m0 10.04v20.08m0 10.04v20.08m0 10.04v20.08m0 10.04v20.08m0 10.04v20.08m0 10.04v20.08m0 10.04v20.07m0 10.03v20.08m0 10.05v20.08m0 10.04v20.08m0 10.04v20.07m0 10.04v20.1m0 10.03v20.08m0 10.04v20.08m0 10.04v20.08m0 10.04v20.08m0 10.04v20.08m0 10.04V1538m0 10.04v20.08m0 10.04v20.07m0 10.05v20.07m0 10.04v20.07m0 10.04v20.1m0 10.03v20.08m0 10.05v20.08m0 10.04v20.08m0 10.04v20.07m0 10.04v20.08m0 10.04v20.08m0 10.04v20.08m0 10.04v10.04" stroke="#333" fill="none"/><path d="M-106.05-489.97h-.95v-.5h.95z" stroke="#333" stroke-width=".05" fill="#333"/><path d="M-106.52 1919.5v.5" stroke="#333" fill="none"/><path d="M554.16-372a8 8 0 0 1 8-8h24a8 8 0 0 1 8 8v684a8 8 0 0 1-8 8h-24a8 8 0 0 1-8-8z" stroke="#6db1ff" stroke-width="2" fill="#ced4db"/><path d="M933.07-489.98v10.12m0 10.12v20.24m0 10.12v20.25m0 10.12v20.23m0 10.12v20.25m0 10.12v20.24m0 10.12v20.25m0 10.12v20.24m0 10.1v20.25m0 10.13v20.24m0 10.12v20.25m0 10.1v20.25m0 10.12v20.24m0 10.14v20.24m0 10.12v20.24m0 10.13v20.24m0 10.13V5.97m0 10.13v20.24m0 10.12V66.7m0 10.13v20.24m0 10.12v20.23m0 10.12v20.25m0 10.12v20.24m0 10.12v20.25m0 10.12v20.24m0 10.1v20.26m0 10.12v10.12" stroke="#333" fill="none"/><path d="M933.55-489.97h-.95v-.5h.95z" stroke="#333" stroke-width=".05" fill="#333"/><path d="M933.07 299.5v.5" stroke="#333" fill="none"/><path d="M186.18-413.76a8 8 0 0 1 8-8h24a8 8 0 0 1 8 8V1852a8 8 0 0 1-8 8h-24a8 8 0 0 1-8-8z" stroke="#6db1ff" stroke-width="2" fill="#ced4db"/><path d="M478.27-603.48a8 8 0 0 1 8-8h174.08a8 8 0 0 1 8 8v105a8 8 0 0 1-8 8H486.27a8 8 0 0 1-8-8z" stroke="#000" stroke-opacity="0" fill="#6db1ff"/><use xlink:href="#c" transform="matrix(1,0,0,1,486.27315348088723,-603.4843603040097) translate(33.03203124999998 58.51432291666667)"/><path d="M794.16-603.48a8 8 0 0 1 8-8H1064a8 8 0 0 1 8 8v105a8 8 0 0 1-8 8H802.15a8 8 0 0 1-8-8z" stroke="#000" stroke-opacity="0" fill="#6db1ff"/><use xlink:href="#d" transform="matrix(1,0,0,1,802.1559812808064,-603.4843603040097) translate(13.724739583333331 58.51432291666667)"/><path d="M86.8-603.48a8 8 0 0 1 8-8h222.77a8 8 0 0 1 8 8v105a8 8 0 0 1-8 8H94.8a8 8 0 0 1-8-8z" stroke="#000" stroke-opacity="0" fill="#6db1ff"/><use xlink:href="#e" transform="matrix(1,0,0,1,94.78661696907307,-603.4843603040094) translate(4.81640625 58.51432291666667)"/><path d="M913.07-363.48a8 8 0 0 1 8-8h24a8 8 0 0 1 8 8v64a8 8 0 0 1-8 8h-24a8 8 0 0 1-8-8z" stroke="#6db1ff" stroke-width="2" fill="#ced4db"/><path d="M536.77-355.34h-309.1" stroke="#3a414a" fill="none"/><path d="M551.54-355.34l-14.27 4.64v-9.27z" stroke="#3a414a" fill="#3a414a"/><path d="M227.7-354.86h-.52v-.95h.5z" stroke="#3a414a" stroke-width=".05" fill="#3a414a"/><use xlink:href="#f" transform="matrix(1,0,0,1,283.9531321524971,-378.1602976879916) translate(0.0049999999999954525 15.069444444444446)"/><path d="M-206.94-603.48a8 8 0 0 1 8-8H-14.1a8 8 0 0 1 8 8v105a8 8 0 0 1-8 8h-184.84a8 8 0 0 1-8-8z" stroke="#000" stroke-opacity="0" fill="#6db1ff"/><use xlink:href="#g" transform="matrix(1,0,0,1,-198.9427484932537,-603.4843603040094) translate(49.85481770833333 58.51432291666667)"/><path d="M-126.52-413.76a8 8 0 0 1 8-8h24a8 8 0 0 1 8 8V1852a8 8 0 0 1-8 8h-24a8 8 0 0 1-8-8z" stroke="#6db1ff" stroke-width="2" fill="#ced4db"/><path d="M1197.8-603.48a8 8 0 0 1 8-8h144a8 8 0 0 1 8 8v105a8 8 0 0 1-8 8h-144a8 8 0 0 1-8-8z" stroke="#000" stroke-opacity="0" fill="#6db1ff"/><use xlink:href="#h" transform="matrix(1,0,0,1,1205.7940770606747,-603.4843603040097) translate(30.355338541666654 58.51432291666667)"/><path d="M1277.8-489.98v10.12m0 10.12v20.24m0 10.12v20.25m0 10.12v20.23m0 10.12v20.25m0 10.12v20.24m0 10.12v20.25m0 10.12v20.24m0 10.1v20.25m0 10.13v20.24m0 10.12v20.25m0 10.1v20.25m0 10.12v20.24m0 10.14v20.24m0 10.12v20.24m0 10.13v20.24m0 10.13V5.97m0 10.13v20.24m0 10.12V66.7m0 10.13v20.24m0 10.12v20.23m0 10.12v20.25m0 10.12v20.24m0 10.12v20.25m0 10.12v20.24m0 10.1v20.26m0 10.12v10.12" stroke="#333" fill="none"/><path d="M1278.27-489.97h-.95v-.5h.95z" stroke="#333" stroke-width=".05" fill="#333"/><path d="M1277.8 299.5v.5" stroke="#333" fill="none"/><path d="M793.66-550.98h-94.94" stroke="#3a414a" fill="none"/><path d="M794.16-550.5h-.52v-.96h.52z" stroke="#3a414a" stroke-width=".05" fill="#3a414a"/><path d="M669.05-550.98l14.86 14.85L698.75-551l-14.85-14.85z" stroke="#3a414a" fill="#3a414a"/><path d="M611.54 12.72h5m4.98 0h9.98m5 0h9.98m5 0h9.97m5 0h9.97m5 0h9.98m5 0h9.97m5 0h9.97m5 0h9.98m5 0h9.97m4.98 0h9.98m5 0h9.98m5 0h9.97m5 0h9.98m5 0h9.97m5 0h9.98m5 0h9.97m5 0h9.97m5 0h9.98m5 0H901m5 0h9.97m4.98 0h10m5 0h10m5.02 0h10m5 0h10.02m5 0h10.02m5 0h10m5.02 0h10m5 0h10.02m5 0h10.02m5 0h10m5.02 0h10m5 0h10.02m5 0h10m5.02 0h10m5 0h10.02m5 0h10.02m5 0h10m5.02 0h10m5 0h10.02m5 0h10.02m5 0h10m5 0h10.02m5 0h5" stroke="#333" fill="none"/><path d="M596.77 12.72l14.27-4.64v9.27z" stroke="#333" fill="#333"/><path d="M1256.8 13.2h-.52v-.96h.5z" stroke="#333" stroke-width=".05" fill="#333"/><use xlink:href="#i" transform="matrix(1,0,0,1,870.6190175739843,-11.286407243048526) translate(0.005000000000002558 16.01666666666667)"/><path d="M595.66-176.16H895.7" stroke="#333" fill="none"/><path d="M595.67-175.7h-.5v-.94h.5z" stroke="#333" stroke-width=".05" fill="#333"/><path d="M910.45-176.16l-14.26 4.64v-9.27z" stroke="#333" fill="#333"/><use xlink:href="#j" transform="matrix(1,0,0,1,730.6864945553003,-172.15968773543185) translate(0.004999999999999005 16.01666666666667)"/><path d="M611.54-119.5h5.26m5.26 0h10.53m5.25 0h10.52m5.27 0h10.52m5.26 0h10.53m5.26 0h10.53m5.26 0h10.52m5.26 0h10.52m5.27 0h10.52m5.25 0H758.4m4.8 0h9.56m4.8 0h9.56m4.8 0h9.56m4.8 0h9.56m4.8 0h9.56m4.78 0h9.58m4.8 0h9.56m4.8 0h9.56m4.78 0h9.58m4.78 0H902m4.78 0h4.8" stroke="#333" fill="none"/><path d="M596.77-119.5l14.27-4.63v9.27z" stroke="#333" fill="#333"/><path d="M912.07-119.44l.03.42h-.54v-.95h.5z" stroke="#333" stroke-width=".05" fill="#333"/><use xlink:href="#k" transform="matrix(1,0,0,1,721.3179231446537,-115.48992340396401) translate(0.005000000000002558 16.01666666666667)"/><path d="M913.07-183.48a8 8 0 0 1 8-8h24a8 8 0 0 1 8 8v64a8 8 0 0 1-8 8h-24a8 8 0 0 1-8-8z" stroke="#6db1ff" stroke-width="2" fill="#ced4db"/><path d="M595.66-31.73h644.75" stroke="#333" fill="none"/><path d="M595.67-31.25h-.5v-.95h.5z" stroke="#333" stroke-width=".05" fill="#333"/><path d="M1255.17-31.73l-14.26 4.64v-9.26z" stroke="#333" fill="#333"/><use xlink:href="#l" transform="matrix(1,0,0,1,884.4194395099493,-55.732981586886055) translate(0.005000000000002558 16.01666666666667)"/><path d="M243.56 216.76h4.9m4.88 0h9.77m4.9 0h9.77m4.9 0h9.76m4.9 0h9.76m4.88 0h9.77m4.9 0h9.76m4.9 0h9.77m4.9 0h9.76m4.9 0h9.76m4.88 0h9.8m4.94 0h9.84m4.93 0h9.83m4.93 0h9.85m4.93 0h9.85m4.92 0h9.85m4.92 0h9.85m4.92 0h9.85m4.92 0h9.84m4.93 0h9.84m4.92 0h9.85m4.93 0h4.92" stroke="#333" fill="none"/><path d="M228.8 216.76l14.26-4.63v9.27z" stroke="#333" fill="#333"/><path d="M553.16 217.24h-.52v-.95h.52z" stroke="#333" stroke-width=".05" fill="#333"/><use xlink:href="#k" transform="matrix(1,0,0,1,357.87269697474323,192.75984008168166) translate(0.005000000000002558 16.01666666666667)"/><path d="M595.66-340.02H895.7" stroke="#333" fill="none"/><path d="M595.67-339.54h-.5v-.95h.5z" stroke="#333" stroke-width=".05" fill="#333"/><path d="M910.45-340.02l-14.26 4.64v-9.27z" stroke="#333" fill="#333"/><use xlink:href="#m" transform="matrix(1,0,0,1,719.6911826499469,-364.0221103683764) translate(0.005000000000002558 16.01666666666667)"/><path d="M611.54-302h5.25m5.24 0h10.5m5.24 0h10.5m5.25 0h10.5m5.25 0h10.5m5.24 0h10.5m5.25 0h10.5m5.24 0H727m5.26 0h10.5m5.25 0h5.25a.36.36 0 0 1 .36.36.36.36 0 0 0 .37.36h4.78m4.77 0h9.56m4.77 0h9.55m4.78 0h9.55m4.78 0h9.56m4.77 0h9.55m4.78 0h9.55m4.8 0h9.54m4.77 0h9.57m4.77 0h9.55m4.77 0h9.55m4.78 0h4.77" stroke="#333" fill="none"/><path d="M596.77-302l14.27-4.64v9.27z" stroke="#333" fill="#333"/><path d="M912.07-300.8h-.5v-.96h.5z" stroke="#333" stroke-width=".05" fill="#333"/><use xlink:href="#n" transform="matrix(1,0,0,1,725.410857515175,-326.0022870165021) translate(0.004999999999999005 16.01666666666667)"/><path d="M138.27-263.48a8 8 0 0 1 8-8h84a8 8 0 0 1 8 8v4.93a17.07 17.07 0 0 1-5 12.07 17.07 17.07 0 0 1-12.07 5h-74.93a8 8 0 0 1-8-8z" fill="#fff"/><path d="M238.27-271.48v20l-10 10h-90" stroke="#000" stroke-width="2" fill="none"/><path d="M138.27-263.48a8 8 0 0 1 8-8h1184a8 8 0 0 1 8 8v524a8 8 0 0 1-8 8h-1184a8 8 0 0 1-8-8z" stroke="#000" stroke-width="2" fill="none"/><use xlink:href="#o" transform="matrix(1,0,0,1,146.27315348088723,-271.48436030400944) translate(19.607421875 21.5478515625)"/><use xlink:href="#p" transform="matrix(1,0,0,1,150.27315348088723,-233.48436030400944) translate(4.85107421875 21.5478515625)"/><use xlink:href="#q" transform="matrix(1,0,0,1,150.27315348088723,-233.48436030400944) translate(516.16357421875 21.5478515625)"/><use xlink:href="#r" transform="matrix(1,0,0,1,150.27315348088723,-233.48436030400944) translate(551.49560546875 21.5478515625)"/><use xlink:href="#s" transform="matrix(1,0,0,1,150.27315348088723,-233.48436030400944) translate(598.26220703125 21.5478515625)"/><path d="M1257.8-43.24a8 8 0 0 1 8-8h24a8 8 0 0 1 8 8v64a8 8 0 0 1-8 8h-24a8 8 0 0 1-8-8z" stroke="#6db1ff" stroke-width="2" fill="#ced4db"/><path d="M243.56 309.33h4.9m4.88 0h9.77m4.9 0h9.77m4.9 0h9.76m4.9 0h9.76m4.88 0h9.77m4.9 0h9.76m4.9 0h9.77m4.9 0h9.76m4.9 0h9.76m4.88 0h9.8m4.94 0h9.84m4.93 0h9.83m4.93 0h9.85m4.93 0h9.85m4.92 0h9.85m4.92 0h9.85m4.92 0h9.85m4.92 0h9.84m4.93 0h9.84m4.92 0h9.85m4.93 0h4.92" stroke="#333" fill="none"/><path d="M228.8 309.33l14.26-4.63v9.27z" stroke="#333" fill="#333"/><path d="M553.16 309.8h-.52v-.94h.52z" stroke="#333" stroke-width=".05" fill="#333"/><use xlink:href="#t" transform="matrix(1,0,0,1,376.3920473328027,285.328646104874) translate(0.005000000000000782 16.01666666666667)"/><path d="M158.27 68a8 8 0 0 1 8-8h84a8 8 0 0 1 8 8v4.93a17.07 17.07 0 0 1-5 12.07 17.07 17.07 0 0 1-12.07 5h-74.93a8 8 0 0 1-8-8z" fill="#fff"/><path d="M258.27 60v20l-10 10h-90" stroke="#000" stroke-width="2" fill="none"/><path d="M158.27 68a8 8 0 0 1 8-8h444a8 8 0 0 1 8 8v164a8 8 0 0 1-8 8h-444a8 8 0 0 1-8-8z" stroke="#000" stroke-width="2" fill="none"/><use xlink:href="#u" transform="matrix(1,0,0,1,166.27315348088723,60) translate(16.54443359375 21.5478515625)"/><use xlink:href="#v" transform="matrix(1,0,0,1,170.27315348088723,98) translate(9.024381510416674 21.5478515625)"/><use xlink:href="#w" transform="matrix(1,0,0,1,170.27315348088723,98) translate(74.83688151041667 21.5478515625)"/><use xlink:href="#x" transform="matrix(1,0,0,1,170.27315348088723,98) translate(132.96774088541667 21.5478515625)"/><path d="M554.16 528a8 8 0 0 1 8-8h24a8 8 0 0 1 8 8v744a8 8 0 0 1-8 8h-24a8 8 0 0 1-8-8z" stroke="#6db1ff" stroke-width="2" fill="#ced4db"/><path d="M140 648a8 8 0 0 1 8-8h84a8 8 0 0 1 8 8v4.93a17.07 17.07 0 0 1-5 12.07 17.07 17.07 0 0 1-12.07 5H148a8 8 0 0 1-8-8z" fill="#fff"/><path d="M240 640v20l-10 10h-90" stroke="#000" stroke-width="2" fill="none"/><path d="M140 648a8 8 0 0 1 8-8h1184a8 8 0 0 1 8 8v524a8 8 0 0 1-8 8H148a8 8 0 0 1-8-8z" stroke="#000" stroke-width="2" fill="none"/><use xlink:href="#o" transform="matrix(1,0,0,1,148,640) translate(19.607421875 21.5478515625)"/><use xlink:href="#y" transform="matrix(1,0,0,1,152,678) translate(6.2373046875 21.5478515625)"/><use xlink:href="#q" transform="matrix(1,0,0,1,152,678) translate(522.6123046875 21.5478515625)"/><use xlink:href="#r" transform="matrix(1,0,0,1,152,678) translate(557.9443359375 21.5478515625)"/><use xlink:href="#z" transform="matrix(1,0,0,1,152,678) translate(604.7109375 21.5478515625)"/><path d="M611.54 781.6h5.26m5.26 0h10.53m5.25 0h10.52m5.27 0h10.52m5.26 0h10.53m5.26 0h10.53m5.26 0h10.52m5.26 0h10.52m5.27 0h10.52m5.25 0H758.4m4.8 0h9.56m4.8 0h9.56m4.8 0h9.56m4.8 0h9.56m4.8 0h9.56m4.78 0h9.58m4.8 0h9.56m4.8 0h9.56m4.78 0h9.58m4.78 0H902m4.78 0h4.8" stroke="#333" fill="none"/><path d="M596.77 781.6l14.27-4.63v9.26z" stroke="#333" fill="#333"/><path d="M912.07 782.08h-.5v-.96h.5z" stroke="#333" stroke-width=".05" fill="#333"/><use xlink:href="#A" transform="matrix(1,0,0,1,734.1013771663577,785.6000069188143) translate(0.004999999999999005 16.01666666666667)"/><path d="M243.56 1230.67h4.9m4.88 0h9.77m4.9 0h9.77m4.9 0h9.76m4.9 0h9.76m4.88 0h9.77m4.9 0h9.76m4.9 0h9.77m4.9 0h9.76m4.9 0h9.76m4.88 0h9.8m4.94 0h9.84m4.93 0h9.84m4.92 0h9.85m4.93 0h9.85m4.92 0h9.85m4.92 0h9.85m4.93 0h9.84m4.92 0h9.84m4.93 0h9.84m4.92 0h9.85m4.93 0h4.92" stroke="#333" fill="none"/><path d="M228.8 1230.67l14.26-4.64v9.27z" stroke="#333" fill="#333"/><path d="M553.16 1231.14h-.52v-.95h.52z" stroke="#333" stroke-width=".05" fill="#333"/><use xlink:href="#t" transform="matrix(1,0,0,1,376.3920908229304,1206.6612770383342) translate(0.005000000000000782 16.01666666666667)"/><path d="M611.54 920h5m4.98 0h9.98m5 0h9.98m5 0h9.97m5 0h9.97m5 0h9.98m5 0h9.97m5 0h9.97m5 0h9.98m5 0h9.97m4.98 0h9.98m5 0h9.98m5 0h9.97m5 0h9.98m5 0h9.97m5 0h9.98m5 0h9.97m5 0h9.97m5 0h9.98m5 0H901m5 0h9.97m4.98 0h10m5 0h10m5.02 0h10m5 0h10.02m5 0h10.02m5 0h10m5.02 0h10m5 0h10.02m5 0h10.02m5 0h10m5.02 0h10m5 0h10.02m5 0h10m5.02 0h10m5 0h10.02m5 0h10.02m5 0h10m5.02 0h10m5 0h10.02m5 0h10.02m5 0h10m5 0h10.02m5 0h5" stroke="#333" fill="none"/><path d="M596.77 920l14.27-4.63v9.26z" stroke="#333" fill="#333"/><path d="M1256.8 920.48h-.52v-.96h.5z" stroke="#333" stroke-width=".05" fill="#333"/><use xlink:href="#B" transform="matrix(1,0,0,1,890.0664652992288,895.9954031565574) translate(0.005000000000002558 16.01666666666667)"/><path d="M595.66 880h644.75" stroke="#333" fill="none"/><path d="M595.67 880.48h-.5v-.96h.5z" stroke="#333" stroke-width=".05" fill="#333"/><path d="M1255.17 880l-14.26 4.63v-9.26z" stroke="#333" fill="#333"/><use xlink:href="#C" transform="matrix(1,0,0,1,890.7647513804561,855.9953593777915) translate(0.005000000000002558 16.01666666666667)"/><path d="M160 988a8 8 0 0 1 8-8h84a8 8 0 0 1 8 8v4.93a17.07 17.07 0 0 1-5 12.07 17.07 17.07 0 0 1-12.07 5H168a8 8 0 0 1-8-8z" fill="#fff"/><path d="M260 980v20l-10 10h-90" stroke="#000" stroke-width="2" fill="none"/><path d="M160 988a8 8 0 0 1 8-8h444a8 8 0 0 1 8 8v164a8 8 0 0 1-8 8H168a8 8 0 0 1-8-8z" stroke="#000" stroke-width="2" fill="none"/><use xlink:href="#u" transform="matrix(1,0,0,1,168,980) translate(16.54443359375 21.5478515625)"/><use xlink:href="#D" transform="matrix(1,0,0,1,172,1018) translate(11.447819010416652 21.5478515625)"/><use xlink:href="#w" transform="matrix(1,0,0,1,172,1018) translate(87.38531901041665 21.5478515625)"/><use xlink:href="#E" transform="matrix(1,0,0,1,172,1018) translate(145.51617838541665 21.5478515625)"/><path d="M794.16 377.5a8 8 0 0 1 8-8H1064a8 8 0 0 1 8 8v105a8 8 0 0 1-8 8H802.15a8 8 0 0 1-8-8z" stroke="#000" stroke-opacity="0" fill="#6db1ff"/><use xlink:href="#F" transform="matrix(1,0,0,1,802.1559812808064,377.5) translate(34.18554687499996 58.51432291666667)"/><path d="M1197.8 377.5a8 8 0 0 1 8-8h144a8 8 0 0 1 8 8v105a8 8 0 0 1-8 8h-144a8 8 0 0 1-8-8z" stroke="#000" stroke-opacity="0" fill="#6db1ff"/><use xlink:href="#G" transform="matrix(1,0,0,1,1205.7940770606747,377.5) translate(45.19739583333333 58.51432291666667)"/><path d="M1277.8 491v9.92m0 9.92v19.84m0 9.92v19.84m0 9.92v19.84m0 9.92v19.84m0 9.92v19.84m0 9.92v19.84m0 9.92v19.84m0 9.92V739m0 9.92v19.84m0 9.92v19.84m0 9.92v19.84m0 9.93v19.84m0 9.93v19.84m0 9.93v19.84m0 9.92v19.83m0 9.92v19.84m0 9.9v19.85m0 9.92v19.84m0 9.93v19.84m0 9.92v19.83m0 9.92v19.84m0 9.9v19.85m0 9.92v19.84m0 9.93v19.84m0 9.92v19.83m0 9.92v19.84m0 9.9v19.85m0 9.92v19.84m0 9.93v19.84m0 9.92v19.83m0 9.92v19.84m0 9.9v19.85m0 9.92V1483m0 9.93v19.84m0 9.92v19.84m0 9.9v19.86m0 9.9v19.86m0 9.92v19.84m0 9.92v19.84m0 9.92v19.84m0 9.92v19.84m0 9.92v19.84m0 9.92v19.84m0 9.92v19.84m0 9.92v19.84m0 9.92v19.84m0 9.92v19.84m0 9.92v9.92" stroke="#333" fill="none"/><path d="M1278.27 491h-.95v-.5h.95z" stroke="#333" stroke-width=".05" fill="#333"/><path d="M1277.8 1919.5v.5M933.07 491v9.98m0 9.98v19.95m0 10v19.95m0 9.98v19.95m0 9.98v19.96m0 9.98v19.95m0 9.98v19.96m0 9.97v19.95m0 9.98v19.96m0 9.97v19.96m0 9.97v19.96m0 9.97v19.96m0 9.98v19.96m0 9.97v19.96m0 9.98v19.97m0 9.97V950m0 9.98v19.95m0 9.98v19.97m0 9.98v19.95m0 9.98v19.96m0 9.98v19.95m0 9.98v19.96m0 10v19.94m0 9.98v9.98" stroke="#333" fill="none"/><path d="M933.55 491h-.95v-.5h.95z" stroke="#333" stroke-width=".05" fill="#333"/><path d="M933.07 1179.5v.5" stroke="#333" fill="none"/><path d="M913.07 728a8 8 0 0 1 8-8h24a8 8 0 0 1 8 8v64a8 8 0 0 1-8 8h-24a8 8 0 0 1-8-8zM1257.8 868a8 8 0 0 1 8-8h24a8 8 0 0 1 8 8v64a8 8 0 0 1-8 8h-24a8 8 0 0 1-8-8z" stroke="#6db1ff" stroke-width="2" fill="#ced4db"/><path d="M536.77 542.22h-309.1" stroke="#3a414a" fill="none"/><path d="M551.54 542.22l-14.27 4.63v-9.26z" stroke="#3a414a" fill="#3a414a"/><path d="M227.7 542.7h-.52v-.96h.5z" stroke="#3a414a" stroke-width=".05" fill="#3a414a"/><use xlink:href="#H" transform="matrix(1,0,0,1,300.1505322685017,519.3985812556625) translate(0.0049999999999954525 15.069444444444446)"/><path d="M479.12 377.5a8 8 0 0 1 8-8H661.2a8 8 0 0 1 8 8v105a8 8 0 0 1-8 8H487.1a8 8 0 0 1-8-8z" stroke="#000" stroke-opacity="0" fill="#6db1ff"/><use xlink:href="#c" transform="matrix(1,0,0,1,487.1183622158827,377.5) translate(33.03203124999998 58.51432291666667)"/><path d="M-85.14-415.2H168.9" stroke="#333" fill="none"/><path d="M-85.13-414.73h-.47l-.03-.43-.12-.5h.62z" stroke="#333" stroke-width=".05" fill="#333"/><path d="M183.68-415.2l-14.27 4.63v-9.26z" stroke="#333" fill="#333"/><use xlink:href="#I" transform="matrix(1,0,0,1,-104.82773698338391,-443.8399424156245) translate(0.0049999999999954525 16.01666666666667)"/><use xlink:href="#J" transform="matrix(1,0,0,1,-104.82773698338391,-443.8399424156245) translate(250.93546875 16.01666666666667)"/><path d="M793.66 430h-94.1" stroke="#3a414a" fill="none"/><path d="M794.16 430.48h-.52v-.96h.52z" stroke="#3a414a" stroke-width=".05" fill="#3a414a"/><path d="M669.9 430l14.85 14.85L699.6 430l-14.85-14.85z" stroke="#3a414a" fill="#3a414a"/><path d="M595.66 736.27H895.7" stroke="#333" fill="none"/><path d="M595.67 736.74h-.5v-.95h.5z" stroke="#333" stroke-width=".05" fill="#333"/><path d="M910.45 736.27l-14.26 4.63v-9.27z" stroke="#333" fill="#333"/><use xlink:href="#j" transform="matrix(1,0,0,1,730.6864658324288,740.2666628203525) translate(0.004999999999999005 16.01666666666667)"/><path d="M913.07 548a8 8 0 0 1 8-8h24a8 8 0 0 1 8 8v64a8 8 0 0 1-8 8h-24a8 8 0 0 1-8-8z" stroke="#6db1ff" stroke-width="2" fill="#ced4db"/><path d="M243.56 1131.53h4.9m4.88 0h9.77m4.9 0h9.77m4.9 0h9.76m4.9 0h9.76m4.88 0h9.77m4.9 0h9.76m4.9 0h9.77m4.9 0h9.76m4.9 0h9.76m4.88 0h9.8m4.94 0h9.84m4.93 0h9.84m4.92 0h9.85m4.93 0h9.85m4.92 0h9.85m4.92 0h9.85m4.92 0h9.85m4.92 0h9.84m4.93 0h9.84m4.92 0h9.85m4.93 0h4.92" stroke="#333" fill="none"/><path d="M228.8 1131.53l14.26-4.64v9.26z" stroke="#333" fill="#333"/><path d="M553.16 1132h-.52v-.95h.52z" stroke="#333" stroke-width=".05" fill="#333"/><use xlink:href="#A" transform="matrix(1,0,0,1,370.65626681144704,1107.520784169324) translate(0.004999999999999005 16.01666666666667)"/><path d="M595.66 565.33H895.7" stroke="#333" fill="none"/><path d="M595.67 565.8h-.5v-.94h.5z" stroke="#333" stroke-width=".05" fill="#333"/><path d="M910.45 565.33l-14.26 4.64v-9.27z" stroke="#333" fill="#333"/><use xlink:href="#m" transform="matrix(1,0,0,1,719.6911784870982,541.3286047995156) translate(0.005000000000002558 16.01666666666667)"/><path d="M611.54 607.77h5.26m5.26 0h10.53m5.25 0h10.52m5.27 0h10.52m5.26 0h10.53m5.26 0h10.53m5.26 0h10.52m5.26 0h10.52m5.27 0h10.52m5.25 0H758.4m4.8 0h9.56m4.8 0h9.56m4.8 0h9.56m4.8 0h9.56m4.8 0h9.56m4.78 0h9.58m4.8 0h9.56m4.8 0h9.56m4.78 0h9.58m4.78 0H902m4.78 0h4.8" stroke="#333" fill="none"/><path d="M596.77 607.77l14.27-4.64v9.27z" stroke="#333" fill="#333"/><path d="M912.07 608.24h-.5v-.95h.5z" stroke="#333" stroke-width=".05" fill="#333"/><use xlink:href="#n" transform="matrix(1,0,0,1,725.3826206154611,583.7629426760569) translate(0.004999999999999005 16.01666666666667)"/><path d="M140 1389a8 8 0 0 1 8-8h84a8 8 0 0 1 8 8v4.93a17.07 17.07 0 0 1-5 12.07 17.07 17.07 0 0 1-12.07 5H148a8 8 0 0 1-8-8z" fill="#fff"/><path d="M240 1381v20l-10 10h-90" stroke="#000" stroke-width="2" fill="none"/><path d="M140 1389a8 8 0 0 1 8-8h1544a8 8 0 0 1 8 8v484a8 8 0 0 1-8 8H148a8 8 0 0 1-8-8z" stroke="#000" stroke-width="2" fill="none"/><use xlink:href="#K" transform="matrix(1,0,0,1,148,1381) translate(29.53466796875 21.5478515625)"/><use xlink:href="#L" transform="matrix(1,0,0,1,152,1419) translate(12.468532986111086 23.08376736111111)"/><use xlink:href="#M" transform="matrix(1,0,0,1,152,1419) translate(93.71853298611109 23.08376736111111)"/><use xlink:href="#N" transform="matrix(1,0,0,1,152,1419) translate(160.52625868055554 23.08376736111111)"/><use xlink:href="#O" transform="matrix(1,0,0,1,152,1419) translate(205.99066840277777 23.08376736111111)"/><use xlink:href="#P" transform="matrix(1,0,0,1,152,1419) translate(299.05707465277777 23.08376736111111)"/><use xlink:href="#Q" transform="matrix(1,0,0,1,152,1419) translate(322.4186197916667 23.08376736111111)"/><use xlink:href="#R" transform="matrix(1,0,0,1,152,1419) translate(362.392578125 23.08376736111111)"/><path d="M794.16 1228a8 8 0 0 1 8-8H1064a8 8 0 0 1 8 8v105a8 8 0 0 1-8 8H802.15a8 8 0 0 1-8-8z" stroke="#000" stroke-opacity="0" fill="#6db1ff"/><use xlink:href="#S" transform="matrix(1,0,0,1,802.1559812808064,1228) translate(63.80104166666668 58.51432291666667)"/><path d="M1380 1228a8 8 0 0 1 8-8h281.83a8 8 0 0 1 8 8v105a8 8 0 0 1-8 8H1388a8 8 0 0 1-8-8z" stroke="#000" stroke-opacity="0" fill="#6db1ff"/><use xlink:href="#T" transform="matrix(1,0,0,1,1388,1228) translate(11.284375000000011 58.51432291666667)"/><path d="M1379.5 1280.5h-277.14" stroke="#3a414a" fill="none"/><path d="M1380 1280.97h-.5v-.94h.5z" stroke="#3a414a" stroke-width=".05" fill="#3a414a"/><path d="M1072.7 1280.5l14.84 14.85 14.85-14.85-14.86-14.85z" stroke="#3a414a" fill="#3a414a"/><path d="M933.07 1341.5v10.14m0 10.14v20.28m0 10.14v20.28m0 10.14v20.28m0 10.14v20.3m0 10.13v20.28m0 10.14v20.27m0 10.14v20.3m0 10.13V1595m0 10.15v20.28m0 10.14v20.28m0 10.14v20.27m0 10.14v20.3m0 10.13v20.28m0 10.15v20.3m0 10.13v20.28m0 10.14v20.28m0 10.14v20.28m0 10.14v20.28m0 10.14v10.14" stroke="#3a414a" fill="none"/><path d="M933.55 1341.5h-.95v-.5h.95z" stroke="#3a414a" stroke-width=".05" fill="#3a414a"/><path d="M933.07 1919.5v.5" stroke="#3a414a" fill="none"/><path d="M913.07 1468a8 8 0 0 1 8-8h24a8 8 0 0 1 8 8v384a8 8 0 0 1-8 8h-24a8 8 0 0 1-8-8z" stroke="#6db1ff" stroke-width="2" fill="#ced4db"/><path d="M227.68 1500H895.7" stroke="#333" fill="none"/><path d="M227.7 1500.47h-.52v-.94h.5z" stroke="#333" stroke-width=".05" fill="#333"/><path d="M910.45 1500l-14.26 4.63v-9.27z" stroke="#333" fill="#333"/><use xlink:href="#U" transform="matrix(1,0,0,1,496.41684871009784,1475.9949009936563) translate(0.0049999999999954525 16.01666666666667)"/><path d="M954.57 1537.87h288.05" stroke="#333" fill="none"/><path d="M954.58 1538.34h-.5v-.95h.5z" stroke="#333" stroke-width=".05" fill="#333"/><path d="M1257.38 1537.87l-14.26 4.63v-9.27z" stroke="#333" fill="#333"/><use xlink:href="#V" transform="matrix(1,0,0,1,1046.4085006400737,1513.8619789840384) translate(0.005000000000002558 16.01666666666667)"/><path d="M970.46 1588h5.03m5.03 0h10.1m5.02 0h10.1m5.02 0h10.1m5.02 0h10.07m5.05 0h10.08m5.04 0h10.07m5.06 0h10.08m5.04 0h10.08m5.04 0h10.1m5.07 0h10.13m5.06 0H1142m5.06 0h10.13m5.06 0h10.13m5.05 0h10.13m5.07 0h10.13m5.07 0h10.13m5.06 0h10.13m5.07 0h10.13m5.06 0h5.07" stroke="#333" fill="none"/><path d="M955.7 1588l14.25-4.63v9.27z" stroke="#333" fill="#333"/><path d="M1259 1588.47h-.5v-.94h.5z" stroke="#333" stroke-width=".05" fill="#333"/><use xlink:href="#W" transform="matrix(1,0,0,1,1065.2507338345208,1563.9953154257744) translate(0.005000000000002558 16.01666666666667)"/><path d="M860 1428a8 8 0 0 1 8-8h84a8 8 0 0 1 8 8v4.93a17.07 17.07 0 0 1-5 12.07 17.07 17.07 0 0 1-12.07 5H868a8 8 0 0 1-8-8z" fill="#fff"/><path d="M960 1420v20l-10 10h-90" stroke="#000" stroke-width="2" fill="none"/><path d="M860 1428a8 8 0 0 1 8-8h801.83a8 8 0 0 1 8 8v406a8 8 0 0 1-8 8H868a8 8 0 0 1-8-8z" stroke="#000" stroke-width="2" fill="none"/><use xlink:href="#K" transform="matrix(1,0,0,1,868,1420) translate(29.53466796875 21.5478515625)"/><use xlink:href="#X" transform="matrix(1,0,0,1,872,1458) translate(13.0732421875 21.5478515625)"/><use xlink:href="#Y" transform="matrix(1,0,0,1,872,1458) translate(164.9482421875 21.5478515625)"/><use xlink:href="#Z" transform="matrix(1,0,0,1,872,1458) translate(219.0625 21.5478515625)"/><use xlink:href="#aa" transform="matrix(1,0,0,1,872,1458) translate(237.9853515625 21.5478515625)"/><use xlink:href="#ab" transform="matrix(1,0,0,1,872,1458) translate(270.3642578125 21.5478515625)"/><path d="M1260 1528a8 8 0 0 1 8-8h24a8 8 0 0 1 8 8v64a8 8 0 0 1-8 8h-24a8 8 0 0 1-8-8z" stroke="#6db1ff" stroke-width="2" fill="#ced4db"/><path d="M1528.9 1341.5v10.14m0 10.14v20.28m0 10.14v20.28m0 10.14v20.28m0 10.14v20.3m0 10.13v20.28m0 10.14v20.27m0 10.14v20.3m0 10.13V1595m0 10.15v20.28m0 10.14v20.28m0 10.14v20.27m0 10.14v20.3m0 10.13v20.28m0 10.15v20.3m0 10.13v20.28m0 10.14v20.28m0 10.14v20.28m0 10.14v20.28m0 10.14v10.14" stroke="#3a414a" fill="none"/><path d="M1529.4 1341.5h-.96v-.5h.95z" stroke="#3a414a" stroke-width=".05" fill="#3a414a"/><path d="M1528.9 1919.5v.5" stroke="#3a414a" fill="none"/><path d="M880 1628a8 8 0 0 1 8-8h84a8 8 0 0 1 8 8v4.93a17.07 17.07 0 0 1-5 12.07 17.07 17.07 0 0 1-12.07 5H888a8 8 0 0 1-8-8z" fill="#fff"/><path d="M980 1620v20l-10 10h-90" stroke="#000" stroke-width="2" fill="none"/><path d="M880 1628a8 8 0 0 1 8-8h768.76a8 8 0 0 1 8 8v184a8 8 0 0 1-8 8H888a8 8 0 0 1-8-8z" stroke="#000" stroke-width="2" fill="none"/><g><use xlink:href="#K" transform="matrix(1,0,0,1,888,1620) translate(29.53466796875 21.5478515625)"/></g><g><use xlink:href="#X" transform="matrix(1,0,0,1,892,1658) translate(12.65087890625 21.5478515625)"/><use xlink:href="#ac" transform="matrix(1,0,0,1,892,1658) translate(164.52587890625 21.5478515625)"/></g><path d="M1260 1748a8 8 0 0 1 8-8h24a8 8 0 0 1 8 8v44a8 8 0 0 1-8 8h-24a8 8 0 0 1-8-8z" stroke="#6db1ff" stroke-width="2" fill="#ced4db"/><path d="M1242.62 1770H954.57" stroke="#3a414a" fill="none"/><path d="M1257.38 1770l-14.26 4.63v-9.27z" stroke="#3a414a" fill="#3a414a"/><path d="M954.6 1770.47h-.53v-.94h.5z" stroke="#3a414a" stroke-width=".05" fill="#3a414a"/><g><use xlink:href="#ad" transform="matrix(1,0,0,1,1022.5729578796565,1744.4895833333333) translate(0 17.22222222222222)"/></g><path d="M1508.9 1688a8 8 0 0 1 8-8h24a8 8 0 0 1 8 8v44a8 8 0 0 1-8 8h-24a8 8 0 0 1-8-8z" stroke="#6db1ff" stroke-width="2" fill="#ced4db"/><path d="M1491.53 1710H954.57" stroke="#3a414a" fill="none"/><path d="M1506.3 1710l-14.27 4.63v-9.27z" stroke="#3a414a" fill="#3a414a"/><path d="M954.58 1710.47h-.5v-.94h.5z" stroke="#3a414a" stroke-width=".05" fill="#3a414a"/><g><use xlink:href="#ae" transform="matrix(1,0,0,1,1193.068988052939,1687.1783854166665) translate(0 15.069444444444446)"/></g><defs><path d="M180 0v-1490h528c311 0 458 177 458 395 0 191-114 278-244 313v14c139 9 302 137 302 371 0 225-148 397-499 397H180zm190-168h350c232 0 321-102 321-231 0-149-120-277-311-277H370v508zm0-668h328c160 0 286-101 286-255 0-129-87-231-280-231H370v486" id="af"/><path d="M613 24c-304 0-509-231-509-576 0-350 205-580 509-580 305 0 511 230 511 580 0 345-206 576-511 576zm0-161c226 0 329-195 329-415 0-222-103-419-329-419-223 0-326 196-326 419 0 220 103 415 326 415" id="ag"/><path d="M158 0v-1118h174v172h12c41-113 157-188 290-188 26 0 70 2 91 3v181c-11-2-60-10-108-10-161 0-279 109-279 260V0H158" id="ah"/><path d="M409 0L70-1118h191c89 329 165 560 243 925 75-353 154-601 240-925h192c85 325 161 564 235 922 77-354 157-598 244-922h191L1267 0h-179c-86-307-176-590-250-913C763-588 675-308 588 0H409" id="ai"/><g id="a"><use transform="matrix(0.026041666666666668,0,0,0.026041666666666668,0,0)" xlink:href="#af"/><use transform="matrix(0.026041666666666668,0,0,0.026041666666666668,34.895833333333336,0)" xlink:href="#ag"/><use transform="matrix(0.026041666666666668,0,0,0.026041666666666668,66.875,0)" xlink:href="#ah"/><use transform="matrix(0.026041666666666668,0,0,0.026041666666666668,87.78645833333333,0)" xlink:href="#ah"/><use transform="matrix(0.026041666666666668,0,0,0.026041666666666668,106.97916666666664,0)" xlink:href="#ag"/><use transform="matrix(0.026041666666666668,0,0,0.026041666666666668,137.99479166666666,0)" xlink:href="#ai"/></g><path d="M158 0v-1490h180v865h22l478-493h223L593-638 1096 0H865L456-523 338-412V0H158" id="aj"/><g id="b"><use transform="matrix(0.026041666666666668,0,0,0.026041666666666668,0,0)" xlink:href="#af"/><use transform="matrix(0.026041666666666668,0,0,0.026041666666666668,34.895833333333336,0)" xlink:href="#ag"/><use transform="matrix(0.026041666666666668,0,0,0.026041666666666668,66.875,0)" xlink:href="#ag"/><use transform="matrix(0.026041666666666668,0,0,0.026041666666666668,98.85416666666667,0)" xlink:href="#aj"/></g><path d="M338-1490V0H158v-1490h180" id="ak"/><path d="M158 0v-1118h180V0H158zm91-1301c-68 0-125-53-125-119s57-119 125-119c69 0 126 53 126 119s-57 119-126 119" id="al"/><path d="M677 24c-213 0-288-135-325-197h-20V0H158v-1490h180v551h14c37-59 106-193 324-193 279 0 474 222 474 576 0 356-194 580-473 580zm-27-161c209 0 317-186 317-421 0-232-105-413-317-413-206 0-314 166-314 413 0 249 111 421 314 421" id="am"/><path d="M471 26C259 26 90-98 90-318c0-256 228-303 435-329 202-27 287-16 287-108 0-139-79-219-234-219-161 0-248 86-283 164l-173-57c86-203 278-265 451-265 150 0 419 46 419 395V0H815v-152h-12C765-73 660 26 471 26zm31-159c199 0 310-134 310-271v-155c-30 35-226 55-295 64-131 17-246 59-246 186 0 116 97 176 231 176" id="an"/><path d="M140 405l46-156c120 36 205 19 263-150l32-93L54-1118h197c107 313 237 620 324 950 87-331 219-637 326-950h196L606 167c-68 178-176 259-334 259-64 0-113-12-132-21" id="ao"/><path d="M295 13c-75 0-135-60-135-135s60-135 135-135 135 60 135 135S370 13 295 13zm0-809c-75 0-135-60-135-135s60-135 135-135 135 60 135 135-60 135-135 135" id="ap"/><path d="M180 0v-1490h190v1322h690V0H180" id="aq"/><g id="c"><use transform="matrix(0.008072916666666667,0,0,0.008072916666666667,0,0)" xlink:href="#ak"/><use transform="matrix(0.008072916666666667,0,0,0.008072916666666667,4.004166666666667,0)" xlink:href="#al"/><use transform="matrix(0.008072916666666667,0,0,0.008072916666666667,8.008333333333335,0)" xlink:href="#am"/><use transform="matrix(0.008072916666666667,0,0,0.008072916666666667,18.131770833333334,0)" xlink:href="#ah"/><use transform="matrix(0.008072916666666667,0,0,0.008072916666666667,24.355989583333333,0)" xlink:href="#an"/><use transform="matrix(0.008072916666666667,0,0,0.008072916666666667,33.63984375,0)" xlink:href="#ah"/><use transform="matrix(0.008072916666666667,0,0,0.008072916666666667,40.12239583333333,0)" xlink:href="#ao"/><use transform="matrix(0.008072916666666667,0,0,0.008072916666666667,49.41432291666666,0)" xlink:href="#ap"/><use transform="matrix(0.008072916666666667,0,0,0.008072916666666667,54.17734375,0)" xlink:href="#aq"/><use transform="matrix(0.008072916666666667,0,0,0.008072916666666667,63.52578125,0)" xlink:href="#al"/><use transform="matrix(0.008072916666666667,0,0,0.008072916666666667,67.52994791666667,0)" xlink:href="#am"/><use transform="matrix(0.008072916666666667,0,0,0.008072916666666667,77.65338541666668,0)" xlink:href="#ah"/><use transform="matrix(0.008072916666666667,0,0,0.008072916666666667,83.87760416666669,0)" xlink:href="#an"/><use transform="matrix(0.008072916666666667,0,0,0.008072916666666667,93.16145833333336,0)" xlink:href="#ah"/><use transform="matrix(0.008072916666666667,0,0,0.008072916666666667,99.6440104166667,0)" xlink:href="#ao"/></g><path d="M158 0v-1118h175l1 205c55-151 181-225 313-225 147 0 245 90 285 228 53-141 190-228 352-228 194 0 352 125 352 384V0h-181v-749c0-161-105-225-225-225-151 0-243 103-243 244V0H807v-767c0-124-93-207-219-207-131 0-250 92-250 270V0H158" id="ar"/><path d="M628 24c-324 0-524-230-524-574 0-343 198-582 503-582 237 0 487 146 487 559v75H286c9 234 145 362 343 362 132 0 231-58 273-172l174 48C1024-91 857 24 628 24zM287-650h624c-17-190-120-322-304-322-192 0-309 151-320 322" id="as"/><path d="M538 24C308 24 148-78 108-271l171-41c32 123 123 178 257 178 156 0 256-77 256-169 0-77-54-128-164-154l-186-44c-203-48-300-148-300-305 0-192 176-326 414-326 230 0 351 112 402 269l-163 42c-31-80-94-158-238-158-133 0-233 69-233 162 0 83 57 129 188 160l169 40c203 48 298 149 298 302 0 196-179 339-441 339" id="at"/><path d="M52 0l541-1490h220L1361 0h-200l-149-416H398L254 0H52zm404-582h497c-103-290-145-390-251-756-108 377-145 460-246 756" id="au"/><path d="M598-1118v154H368v674c0 100 37 144 132 144 23 0 62-6 92-12L629-6c-37 13-88 20-134 20-193 0-307-107-307-290v-688H20v-154h168v-266h180v266h230" id="av"/><path d="M174-520v-126l944-476v196L406-588v12l712 338v194" id="aw"/><path d="M180 0v-1490h270l367 940c28 72 75 218 110 339 35-117 81-264 110-339l362-940h271V0h-187c2-448-5-837 7-1287-157 497-311 829-483 1287H842C666-458 514-784 354-1284c12 438 5 843 7 1284H180" id="ax"/><path d="M1181-520L237-44v-194l712-338v-12L237-926v-196l944 476v126" id="ay"/><g id="d"><use transform="matrix(0.008072916666666667,0,0,0.008072916666666667,0,0)" xlink:href="#ar"/><use transform="matrix(0.008072916666666667,0,0,0.008072916666666667,14.482812500000001,0)" xlink:href="#as"/><use transform="matrix(0.008072916666666667,0,0,0.008072916666666667,24.121875000000003,0)" xlink:href="#ar"/><use transform="matrix(0.008072916666666667,0,0,0.008072916666666667,38.604687500000004,0)" xlink:href="#am"/><use transform="matrix(0.008072916666666667,0,0,0.008072916666666667,48.728125000000006,0)" xlink:href="#as"/><use transform="matrix(0.008072916666666667,0,0,0.008072916666666667,58.36718750000001,0)" xlink:href="#ah"/><use transform="matrix(0.008072916666666667,0,0,0.008072916666666667,64.59140625,0)" xlink:href="#at"/><use transform="matrix(0.008072916666666667,0,0,0.008072916666666667,73.31822916666667,0)" xlink:href="#ap"/><use transform="matrix(0.008072916666666667,0,0,0.008072916666666667,78.08125,0)" xlink:href="#au"/><use transform="matrix(0.008072916666666667,0,0,0.008072916666666667,89.48828125,0)" xlink:href="#ah"/><use transform="matrix(0.008072916666666667,0,0,0.008072916666666667,95.97083333333335,0)" xlink:href="#ah"/><use transform="matrix(0.008072916666666667,0,0,0.008072916666666667,102.19505208333335,0)" xlink:href="#an"/><use transform="matrix(0.008072916666666667,0,0,0.008072916666666667,111.23671875000002,0)" xlink:href="#ao"/><use transform="matrix(0.008072916666666667,0,0,0.008072916666666667,120.60937500000003,0)" xlink:href="#aq"/><use transform="matrix(0.008072916666666667,0,0,0.008072916666666667,129.95781250000002,0)" xlink:href="#al"/><use transform="matrix(0.008072916666666667,0,0,0.008072916666666667,133.96197916666668,0)" xlink:href="#at"/><use transform="matrix(0.008072916666666667,0,0,0.008072916666666667,142.68880208333334,0)" xlink:href="#av"/><use transform="matrix(0.008072916666666667,0,0,0.008072916666666667,147.62942708333333,0)" xlink:href="#aw"/><use transform="matrix(0.008072916666666667,0,0,0.008072916666666667,158.56822916666667,0)" xlink:href="#ax"/><use transform="matrix(0.008072916666666667,0,0,0.008072916666666667,173.503125,0)" xlink:href="#as"/><use transform="matrix(0.008072916666666667,0,0,0.008072916666666667,183.1421875,0)" xlink:href="#ar"/><use transform="matrix(0.008072916666666667,0,0,0.008072916666666667,197.625,0)" xlink:href="#am"/><use transform="matrix(0.008072916666666667,0,0,0.008072916666666667,207.7484375,0)" xlink:href="#as"/><use transform="matrix(0.008072916666666667,0,0,0.008072916666666667,217.3875,0)" xlink:href="#ah"/><use transform="matrix(0.008072916666666667,0,0,0.008072916666666667,223.61171875,0)" xlink:href="#ay"/></g><path d="M338-670V0H158v-1118h173l1 207c72-158 192-221 342-221 226 0 378 139 378 422V0H872v-695c0-172-96-275-252-275-161 0-282 109-282 300" id="az"/><path d="M783 20c-382 0-661-292-661-764 0-473 279-766 661-766 302 0 548 182 601 489h-190c-42-204-217-313-411-313-268 0-476 208-476 590 0 381 209 588 476 588 195 0 369-110 411-313h190c-52 303-296 489-601 489" id="aA"/><g id="e"><use transform="matrix(0.008072916666666667,0,0,0.008072916666666667,0,0)" xlink:href="#ak"/><use transform="matrix(0.008072916666666667,0,0,0.008072916666666667,4.004166666666667,0)" xlink:href="#al"/><use transform="matrix(0.008072916666666667,0,0,0.008072916666666667,8.008333333333335,0)" xlink:href="#am"/><use transform="matrix(0.008072916666666667,0,0,0.008072916666666667,18.131770833333334,0)" xlink:href="#ah"/><use transform="matrix(0.008072916666666667,0,0,0.008072916666666667,24.355989583333333,0)" xlink:href="#an"/><use transform="matrix(0.008072916666666667,0,0,0.008072916666666667,33.63984375,0)" xlink:href="#ah"/><use transform="matrix(0.008072916666666667,0,0,0.008072916666666667,40.12239583333333,0)" xlink:href="#al"/><use transform="matrix(0.008072916666666667,0,0,0.008072916666666667,44.1265625,0)" xlink:href="#an"/><use transform="matrix(0.008072916666666667,0,0,0.008072916666666667,53.41041666666666,0)" xlink:href="#az"/><use transform="matrix(0.008072916666666667,0,0,0.008072916666666667,63.178645833333334,0)" xlink:href="#ap"/><use transform="matrix(0.008072916666666667,0,0,0.008072916666666667,67.94166666666666,0)" xlink:href="#aq"/><use transform="matrix(0.008072916666666667,0,0,0.008072916666666667,77.29010416666667,0)" xlink:href="#al"/><use transform="matrix(0.008072916666666667,0,0,0.008072916666666667,81.29427083333333,0)" xlink:href="#am"/><use transform="matrix(0.008072916666666667,0,0,0.008072916666666667,91.41770833333334,0)" xlink:href="#ah"/><use transform="matrix(0.008072916666666667,0,0,0.008072916666666667,97.64192708333334,0)" xlink:href="#an"/><use transform="matrix(0.008072916666666667,0,0,0.008072916666666667,106.92578125000001,0)" xlink:href="#ah"/><use transform="matrix(0.008072916666666667,0,0,0.008072916666666667,113.40833333333336,0)" xlink:href="#al"/><use transform="matrix(0.008072916666666667,0,0,0.008072916666666667,117.41250000000002,0)" xlink:href="#an"/><use transform="matrix(0.008072916666666667,0,0,0.008072916666666667,126.6963541666667,0)" xlink:href="#az"/><use transform="matrix(0.008072916666666667,0,0,0.008072916666666667,136.46458333333337,0)" xlink:href="#aA"/><use transform="matrix(0.008072916666666667,0,0,0.008072916666666667,148.54166666666669,0)" xlink:href="#ag"/><use transform="matrix(0.008072916666666667,0,0,0.008072916666666667,158.45520833333336,0)" xlink:href="#az"/><use transform="matrix(0.008072916666666667,0,0,0.008072916666666667,168.22343750000002,0)" xlink:href="#av"/><use transform="matrix(0.008072916666666667,0,0,0.008072916666666667,173.63229166666667,0)" xlink:href="#ah"/><use transform="matrix(0.008072916666666667,0,0,0.008072916666666667,179.58203125,0)" xlink:href="#ag"/><use transform="matrix(0.008072916666666667,0,0,0.008072916666666667,189.49557291666667,0)" xlink:href="#ak"/><use transform="matrix(0.008072916666666667,0,0,0.008072916666666667,193.49973958333334,0)" xlink:href="#ak"/><use transform="matrix(0.008072916666666667,0,0,0.008072916666666667,197.50390625,0)" xlink:href="#as"/><use transform="matrix(0.008072916666666667,0,0,0.008072916666666667,207.14296875,0)" xlink:href="#ah"/></g><path d="M678-1118v154H420V0H240v-964H20v-154h220v-149c0-194 155-293 318-293 85 0 141 18 168 30l-50 154c-19-6-47-17-97-17-111 0-159 58-159 166v109h258" id="aB"/><path d="M577 24c-279 0-473-224-473-580 0-354 195-576 474-576 218 0 287 134 324 193h14v-551h180V0H922v-173h-20C865-111 790 24 577 24zm27-161c203 0 314-172 314-421 0-247-108-413-314-413-212 0-317 181-317 413 0 235 108 421 317 421" id="aC"/><path d="M180 0v-1490h224l606 953c40 63 108 177 176 312-27-437-7-821-13-1265h190V0h-226C860-448 622-778 356-1262c27 476 11 792 15 1262H180" id="aD"/><path d="M218-607c0-325 108-727 258-974h175c-155 315-250 682-250 974 0 265 78 531 250 886H476C306-10 218-315 218-607" id="aE"/><path d="M232-923l-22-567h194l-22 567H232zm340 0l-22-567h194l-22 567H572" id="aF"/><path d="M613 24c-304 0-509-231-509-576 0-350 205-580 509-580 216 0 392 114 453 309l-173 49c-33-115-133-197-280-197-223 0-326 196-326 419 0 220 103 415 326 415 150 0 252-85 285-206l172 49C1010-95 832 24 613 24" id="aG"/><path d="M96 279C273-86 346-350 346-607c0-292-95-659-250-974h175c150 246 258 650 258 974 0 297-91 602-258 886H96" id="aH"/><g id="f"><use transform="matrix(0.007595486111111112,0,0,0.007595486111111112,0,0)" xlink:href="#aB"/><use transform="matrix(0.007595486111111112,0,0,0.007595486111111112,5.757378472222223,0)" xlink:href="#al"/><use transform="matrix(0.007595486111111112,0,0,0.007595486111111112,9.524739583333336,0)" xlink:href="#az"/><use transform="matrix(0.007595486111111112,0,0,0.007595486111111112,18.71527777777778,0)" xlink:href="#aC"/><use transform="matrix(0.007595486111111112,0,0,0.007595486111111112,28.240017361111114,0)" xlink:href="#ax"/><use transform="matrix(0.007595486111111112,0,0,0.007595486111111112,42.29166666666667,0)" xlink:href="#as"/><use transform="matrix(0.007595486111111112,0,0,0.007595486111111112,51.36067708333334,0)" xlink:href="#ar"/><use transform="matrix(0.007595486111111112,0,0,0.007595486111111112,64.98697916666667,0)" xlink:href="#am"/><use transform="matrix(0.007595486111111112,0,0,0.007595486111111112,74.51171875,0)" xlink:href="#as"/><use transform="matrix(0.007595486111111112,0,0,0.007595486111111112,83.58072916666667,0)" xlink:href="#ah"/><use transform="matrix(0.007595486111111112,0,0,0.007595486111111112,89.6799045138889,0)" xlink:href="#af"/><use transform="matrix(0.007595486111111112,0,0,0.007595486111111112,99.85785590277779,0)" xlink:href="#ao"/><use transform="matrix(0.007595486111111112,0,0,0.007595486111111112,108.67621527777779,0)" xlink:href="#aD"/><use transform="matrix(0.007595486111111112,0,0,0.007595486111111112,120.39605034722223,0)" xlink:href="#an"/><use transform="matrix(0.007595486111111112,0,0,0.007595486111111112,129.130859375,0)" xlink:href="#ar"/><use transform="matrix(0.007595486111111112,0,0,0.007595486111111112,142.75716145833334,0)" xlink:href="#as"/><use transform="matrix(0.007595486111111112,0,0,0.007595486111111112,151.826171875,0)" xlink:href="#aE"/><use transform="matrix(0.007595486111111112,0,0,0.007595486111111112,157.5,0)" xlink:href="#aF"/><use transform="matrix(0.007595486111111112,0,0,0.007595486111111112,163.515625,0)" xlink:href="#au"/><use transform="matrix(0.007595486111111112,0,0,0.007595486111111112,174.248046875,0)" xlink:href="#ak"/><use transform="matrix(0.007595486111111112,0,0,0.007595486111111112,178.01540798611111,0)" xlink:href="#al"/><use transform="matrix(0.007595486111111112,0,0,0.007595486111111112,181.78276909722223,0)" xlink:href="#aG"/><use transform="matrix(0.007595486111111112,0,0,0.007595486111111112,190.66948784722223,0)" xlink:href="#as"/><use transform="matrix(0.007595486111111112,0,0,0.007595486111111112,199.51063368055554,0)" xlink:href="#aF"/><use transform="matrix(0.007595486111111112,0,0,0.007595486111111112,206.75672743055554,0)" xlink:href="#aH"/></g><path d="M158 418v-1536h174v179h20c37-59 106-193 324-193 279 0 474 222 474 576 0 356-194 580-473 580-213 0-288-135-325-197h-14v591H158zm492-555c209 0 317-186 317-421 0-232-105-413-317-413-206 0-314 166-314 413 0 249 111 421 314 421" id="aI"/><g id="g"><use transform="matrix(0.008072916666666667,0,0,0.008072916666666667,0,0)" xlink:href="#aq"/><use transform="matrix(0.008072916666666667,0,0,0.008072916666666667,9.348437500000001,0)" xlink:href="#al"/><use transform="matrix(0.008072916666666667,0,0,0.008072916666666667,13.35260416666667,0)" xlink:href="#am"/><use transform="matrix(0.008072916666666667,0,0,0.008072916666666667,23.47604166666667,0)" xlink:href="#ah"/><use transform="matrix(0.008072916666666667,0,0,0.008072916666666667,29.700260416666673,0)" xlink:href="#an"/><use transform="matrix(0.008072916666666667,0,0,0.008072916666666667,38.98411458333334,0)" xlink:href="#ah"/><use transform="matrix(0.008072916666666667,0,0,0.008072916666666667,45.46666666666667,0)" xlink:href="#ao"/><use transform="matrix(0.008072916666666667,0,0,0.008072916666666667,53.63645833333334,0)" xlink:href="#au"/><use transform="matrix(0.008072916666666667,0,0,0.008072916666666667,65.04348958333334,0)" xlink:href="#aI"/><use transform="matrix(0.008072916666666667,0,0,0.008072916666666667,75.16692708333335,0)" xlink:href="#aI"/></g><g id="h"><use transform="matrix(0.008072916666666667,0,0,0.008072916666666667,0,0)" xlink:href="#ar"/><use transform="matrix(0.008072916666666667,0,0,0.008072916666666667,14.482812500000001,0)" xlink:href="#ap"/><use transform="matrix(0.008072916666666667,0,0,0.008072916666666667,19.24583333333334,0)" xlink:href="#ax"/><use transform="matrix(0.008072916666666667,0,0,0.008072916666666667,34.18072916666667,0)" xlink:href="#as"/><use transform="matrix(0.008072916666666667,0,0,0.008072916666666667,43.819791666666674,0)" xlink:href="#ar"/><use transform="matrix(0.008072916666666667,0,0,0.008072916666666667,58.302604166666676,0)" xlink:href="#am"/><use transform="matrix(0.008072916666666667,0,0,0.008072916666666667,68.42604166666668,0)" xlink:href="#as"/><use transform="matrix(0.008072916666666667,0,0,0.008072916666666667,78.06510416666669,0)" xlink:href="#ah"/></g><g id="i"><use transform="matrix(0.008072916666666667,0,0,0.008072916666666667,0,0)" xlink:href="#ar"/><use transform="matrix(0.008072916666666667,0,0,0.008072916666666667,14.482812500000001,0)" xlink:href="#as"/><use transform="matrix(0.008072916666666667,0,0,0.008072916666666667,24.121875000000003,0)" xlink:href="#ar"/><use transform="matrix(0.008072916666666667,0,0,0.008072916666666667,38.604687500000004,0)" xlink:href="#am"/><use transform="matrix(0.008072916666666667,0,0,0.008072916666666667,48.728125000000006,0)" xlink:href="#as"/><use transform="matrix(0.008072916666666667,0,0,0.008072916666666667,58.36718750000001,0)" xlink:href="#ah"/><use transform="matrix(0.008072916666666667,0,0,0.008072916666666667,64.84973958333335,0)" xlink:href="#aD"/><use transform="matrix(0.008072916666666667,0,0,0.008072916666666667,77.30625,0)" xlink:href="#an"/><use transform="matrix(0.008072916666666667,0,0,0.008072916666666667,86.59010416666668,0)" xlink:href="#ar"/><use transform="matrix(0.008072916666666667,0,0,0.008072916666666667,101.07291666666669,0)" xlink:href="#as"/></g><path d="M65 0l393-574-370-544h210c88 136 192 297 267 435 67-142 176-302 264-435h206L661-564 1053 0H844c-94-144-206-310-287-458C484-308 366-142 273 0H65" id="aJ"/><g id="j"><use transform="matrix(0.008072916666666667,0,0,0.008072916666666667,0,0)" xlink:href="#az"/><use transform="matrix(0.008072916666666667,0,0,0.008072916666666667,9.768229166666668,0)" xlink:href="#as"/><use transform="matrix(0.008072916666666667,0,0,0.008072916666666667,19.035937500000003,0)" xlink:href="#aJ"/><use transform="matrix(0.008072916666666667,0,0,0.008072916666666667,28.384375000000006,0)" xlink:href="#av"/><use transform="matrix(0.008072916666666667,0,0,0.008072916666666667,33.79322916666667,0)" xlink:href="#aE"/><use transform="matrix(0.008072916666666667,0,0,0.008072916666666667,39.82369791666667,0)" xlink:href="#aH"/></g><g id="k"><use transform="matrix(0.008072916666666667,0,0,0.008072916666666667,0,0)" xlink:href="#ar"/><use transform="matrix(0.008072916666666667,0,0,0.008072916666666667,14.482812500000001,0)" xlink:href="#as"/><use transform="matrix(0.008072916666666667,0,0,0.008072916666666667,24.121875000000003,0)" xlink:href="#ar"/><use transform="matrix(0.008072916666666667,0,0,0.008072916666666667,38.604687500000004,0)" xlink:href="#am"/><use transform="matrix(0.008072916666666667,0,0,0.008072916666666667,48.728125000000006,0)" xlink:href="#as"/><use transform="matrix(0.008072916666666667,0,0,0.008072916666666667,58.36718750000001,0)" xlink:href="#ah"/></g><path d="M611 442c-248 0-391-105-460-228l146-94c47 65 117 165 314 165 178 0 307-82 307-266v-224h-17C863-141 792-18 576-18c-268 0-472-195-472-546 0-346 197-568 476-568 216 0 288 133 326 193h17v-179h175V29c0 289-215 413-487 413zm-5-620c203 0 314-146 314-390 0-237-108-403-314-403-213 0-319 180-319 403 0 230 109 390 319 390" id="aK"/><g id="l"><use transform="matrix(0.008072916666666667,0,0,0.008072916666666667,0,0)" xlink:href="#aK"/><use transform="matrix(0.008072916666666667,0,0,0.008072916666666667,10.139583333333334,0)" xlink:href="#as"/><use transform="matrix(0.008072916666666667,0,0,0.008072916666666667,19.778645833333336,0)" xlink:href="#av"/><use transform="matrix(0.008072916666666667,0,0,0.008072916666666667,25.187500000000004,0)" xlink:href="#aD"/><use transform="matrix(0.008072916666666667,0,0,0.008072916666666667,37.644010416666674,0)" xlink:href="#an"/><use transform="matrix(0.008072916666666667,0,0,0.008072916666666667,46.927864583333346,0)" xlink:href="#ar"/><use transform="matrix(0.008072916666666667,0,0,0.008072916666666667,61.41067708333335,0)" xlink:href="#as"/><use transform="matrix(0.008072916666666667,0,0,0.008072916666666667,71.04973958333335,0)" xlink:href="#aE"/><use transform="matrix(0.008072916666666667,0,0,0.008072916666666667,77.08020833333335,0)" xlink:href="#aH"/></g><g id="m"><use transform="matrix(0.008072916666666667,0,0,0.008072916666666667,0,0)" xlink:href="#al"/><use transform="matrix(0.008072916666666667,0,0,0.008072916666666667,4.004166666666667,0)" xlink:href="#av"/><use transform="matrix(0.008072916666666667,0,0,0.008072916666666667,9.2515625,0)" xlink:href="#as"/><use transform="matrix(0.008072916666666667,0,0,0.008072916666666667,18.890624999999996,0)" xlink:href="#ah"/><use transform="matrix(0.008072916666666667,0,0,0.008072916666666667,25.11484375,0)" xlink:href="#an"/><use transform="matrix(0.008072916666666667,0,0,0.008072916666666667,34.39869791666666,0)" xlink:href="#av"/><use transform="matrix(0.008072916666666667,0,0,0.008072916666666667,39.64609374999999,0)" xlink:href="#ag"/><use transform="matrix(0.008072916666666667,0,0,0.008072916666666667,49.55963541666666,0)" xlink:href="#ah"/><use transform="matrix(0.008072916666666667,0,0,0.008072916666666667,55.78385416666666,0)" xlink:href="#aE"/><use transform="matrix(0.008072916666666667,0,0,0.008072916666666667,61.814322916666654,0)" xlink:href="#aH"/></g><path d="M370-1490V0H180v-1490h190" id="aL"/><g id="n"><use transform="matrix(0.008072916666666667,0,0,0.008072916666666667,0,0)" xlink:href="#aL"/><use transform="matrix(0.008072916666666667,0,0,0.008072916666666667,4.682291666666667,0)" xlink:href="#av"/><use transform="matrix(0.008072916666666667,0,0,0.008072916666666667,9.9296875,0)" xlink:href="#as"/><use transform="matrix(0.008072916666666667,0,0,0.008072916666666667,19.56875,0)" xlink:href="#ah"/><use transform="matrix(0.008072916666666667,0,0,0.008072916666666667,25.79296875,0)" xlink:href="#an"/><use transform="matrix(0.008072916666666667,0,0,0.008072916666666667,35.07682291666667,0)" xlink:href="#av"/><use transform="matrix(0.008072916666666667,0,0,0.008072916666666667,40.32421875,0)" xlink:href="#ag"/><use transform="matrix(0.008072916666666667,0,0,0.008072916666666667,50.23776041666667,0)" xlink:href="#ah"/></g><g id="o"><use transform="matrix(0.0087890625,0,0,0.0087890625,0,0)" xlink:href="#aq"/><use transform="matrix(0.0087890625,0,0,0.0087890625,10.177734375,0)" xlink:href="#ag"/><use transform="matrix(0.0087890625,0,0,0.0087890625,20.970703125,0)" xlink:href="#ag"/><use transform="matrix(0.0087890625,0,0,0.0087890625,31.763671875,0)" xlink:href="#aI"/></g><path d="M226 279v-1860h398v153H398V126h226v153H226" id="aM"/><g id="q"><use transform="matrix(0.0087890625,0,0,0.0087890625,0,0)" xlink:href="#aM"/><use transform="matrix(0.0087890625,0,0,0.0087890625,6.5654296875,0)" xlink:href="#aB"/><use transform="matrix(0.0087890625,0,0,0.0087890625,12.7001953125,0)" xlink:href="#ag"/><use transform="matrix(0.0087890625,0,0,0.0087890625,23.4931640625,0)" xlink:href="#ah"/></g><path d="M338-670V0H158v-1490h180v566c73-149 190-208 336-208 226 0 379 139 379 422V0H872v-695c0-172-96-275-252-275-161 0-282 109-282 300" id="aN"/><g id="r"><use transform="matrix(0.0087890625,0,0,0.0087890625,0,0)" xlink:href="#as"/><use transform="matrix(0.0087890625,0,0,0.0087890625,10.669921875,0)" xlink:href="#an"/><use transform="matrix(0.0087890625,0,0,0.0087890625,20.77734375,0)" xlink:href="#aG"/><use transform="matrix(0.0087890625,0,0,0.0087890625,31.060546875,0)" xlink:href="#aN"/></g><path d="M123 279V126h226v-1554H123v-153h398V279H123" id="aO"/><g id="s"><use transform="matrix(0.0087890625,0,0,0.0087890625,0,0)" xlink:href="#ar"/><use transform="matrix(0.0087890625,0,0,0.0087890625,15.767578125,0)" xlink:href="#as"/><use transform="matrix(0.0087890625,0,0,0.0087890625,26.26171875,0)" xlink:href="#ar"/><use transform="matrix(0.0087890625,0,0,0.0087890625,42.029296875,0)" xlink:href="#am"/><use transform="matrix(0.0087890625,0,0,0.0087890625,53.05078125,0)" xlink:href="#as"/><use transform="matrix(0.0087890625,0,0,0.0087890625,63.544921875,0)" xlink:href="#ah"/><use transform="matrix(0.0087890625,0,0,0.0087890625,70.3212890625,0)" xlink:href="#aO"/></g><path d="M537 14c-226 0-379-139-379-422v-710h180v695c0 172 97 275 253 275 160 0 281-109 281-300v-670h181V0H879v-209C806-46 684 14 537 14" id="aP"/><g id="t"><use transform="matrix(0.008072916666666667,0,0,0.008072916666666667,0,0)" xlink:href="#az"/><use transform="matrix(0.008072916666666667,0,0,0.008072916666666667,9.768229166666668,0)" xlink:href="#aP"/><use transform="matrix(0.008072916666666667,0,0,0.008072916666666667,19.544531250000002,0)" xlink:href="#ak"/><use transform="matrix(0.008072916666666667,0,0,0.008072916666666667,23.54869791666667,0)" xlink:href="#ak"/></g><g id="u"><use transform="matrix(0.0087890625,0,0,0.0087890625,0,0)" xlink:href="#af"/><use transform="matrix(0.0087890625,0,0,0.0087890625,11.77734375,0)" xlink:href="#ah"/><use transform="matrix(0.0087890625,0,0,0.0087890625,18.2548828125,0)" xlink:href="#as"/><use transform="matrix(0.0087890625,0,0,0.0087890625,28.9248046875,0)" xlink:href="#an"/><use transform="matrix(0.0087890625,0,0,0.0087890625,39.0322265625,0)" xlink:href="#aj"/></g><g id="w"><use transform="matrix(0.0087890625,0,0,0.0087890625,0,0)" xlink:href="#aM"/><use transform="matrix(0.0087890625,0,0,0.0087890625,6.5654296875,0)" xlink:href="#ai"/><use transform="matrix(0.0087890625,0,0,0.0087890625,21.2958984375,0)" xlink:href="#aN"/><use transform="matrix(0.0087890625,0,0,0.0087890625,31.939453125,0)" xlink:href="#as"/><use transform="matrix(0.0087890625,0,0,0.0087890625,42.43359375,0)" xlink:href="#az"/></g><path d="M295 13c-75 0-135-60-135-135s60-135 135-135 135 60 135 135S370 13 295 13" id="aQ"/><path d="M1096 418H916v-591h-14C865-111 790 24 577 24c-279 0-473-224-473-580 0-354 195-576 474-576 218 0 287 134 324 193h20v-179h174V418zM604-137c203 0 314-172 314-421 0-247-108-413-314-413-212 0-317 181-317 413 0 235 108 421 317 421" id="aR"/><g id="x"><use transform="matrix(0.008072916666666667,0,0,0.008072916666666667,0,0)" xlink:href="#ar"/><use transform="matrix(0.008072916666666667,0,0,0.008072916666666667,14.482812500000001,0)" xlink:href="#as"/><use transform="matrix(0.008072916666666667,0,0,0.008072916666666667,24.121875000000003,0)" xlink:href="#ar"/><use transform="matrix(0.008072916666666667,0,0,0.008072916666666667,38.604687500000004,0)" xlink:href="#am"/><use transform="matrix(0.008072916666666667,0,0,0.008072916666666667,48.728125000000006,0)" xlink:href="#as"/><use transform="matrix(0.008072916666666667,0,0,0.008072916666666667,58.36718750000001,0)" xlink:href="#ah"/><use transform="matrix(0.008072916666666667,0,0,0.008072916666666667,64.84973958333335,0)" xlink:href="#aD"/><use transform="matrix(0.008072916666666667,0,0,0.008072916666666667,77.30625,0)" xlink:href="#an"/><use transform="matrix(0.008072916666666667,0,0,0.008072916666666667,86.59010416666668,0)" xlink:href="#ar"/><use transform="matrix(0.008072916666666667,0,0,0.008072916666666667,101.07291666666669,0)" xlink:href="#as"/><use transform="matrix(0.008072916666666667,0,0,0.008072916666666667,110.71197916666668,0)" xlink:href="#aQ"/><use transform="matrix(0.008072916666666667,0,0,0.008072916666666667,115.47500000000001,0)" xlink:href="#as"/><use transform="matrix(0.008072916666666667,0,0,0.008072916666666667,125.11406250000002,0)" xlink:href="#aR"/><use transform="matrix(0.008072916666666667,0,0,0.008072916666666667,135.2375,0)" xlink:href="#aP"/><use transform="matrix(0.008072916666666667,0,0,0.008072916666666667,145.01380208333336,0)" xlink:href="#an"/><use transform="matrix(0.008072916666666667,0,0,0.008072916666666667,154.29765625000002,0)" xlink:href="#ak"/><use transform="matrix(0.008072916666666667,0,0,0.008072916666666667,158.30182291666668,0)" xlink:href="#at"/><use transform="matrix(0.008072916666666667,0,0,0.008072916666666667,167.02864583333334,0)" xlink:href="#aE"/><use transform="matrix(0.008072916666666667,0,0,0.008072916666666667,173.05911458333335,0)" xlink:href="#aF"/><use transform="matrix(0.008072916666666667,0,0,0.008072916666666667,179.45286458333334,0)" xlink:href="#au"/><use transform="matrix(0.008072916666666667,0,0,0.008072916666666667,190.85989583333333,0)" xlink:href="#ak"/><use transform="matrix(0.008072916666666667,0,0,0.008072916666666667,194.8640625,0)" xlink:href="#al"/><use transform="matrix(0.008072916666666667,0,0,0.008072916666666667,198.86822916666665,0)" xlink:href="#aG"/><use transform="matrix(0.008072916666666667,0,0,0.008072916666666667,208.31354166666665,0)" xlink:href="#as"/><use transform="matrix(0.008072916666666667,0,0,0.008072916666666667,217.71041666666665,0)" xlink:href="#aF"/><use transform="matrix(0.008072916666666667,0,0,0.008072916666666667,225.41197916666664,0)" xlink:href="#aH"/><use transform="matrix(0.0087890625,0,0,0.0087890625,231.44244791666665,0)" xlink:href="#aO"/></g><g id="z"><use transform="matrix(0.0087890625,0,0,0.0087890625,0,0)" xlink:href="#am"/><use transform="matrix(0.0087890625,0,0,0.0087890625,11.021484375,0)" xlink:href="#ag"/><use transform="matrix(0.0087890625,0,0,0.0087890625,21.814453125,0)" xlink:href="#ag"/><use transform="matrix(0.0087890625,0,0,0.0087890625,32.607421875,0)" xlink:href="#aj"/><use transform="matrix(0.0087890625,0,0,0.0087890625,42.486328125,0)" xlink:href="#aO"/></g><g id="A"><use transform="matrix(0.008072916666666667,0,0,0.008072916666666667,0,0)" xlink:href="#am"/><use transform="matrix(0.008072916666666667,0,0,0.008072916666666667,10.123437500000001,0)" xlink:href="#ag"/><use transform="matrix(0.008072916666666667,0,0,0.008072916666666667,20.03697916666667,0)" xlink:href="#ag"/><use transform="matrix(0.008072916666666667,0,0,0.008072916666666667,29.950520833333336,0)" xlink:href="#aj"/></g><path d="M98-1322v-168h1126v168H757V0H567v-1322H98" id="aS"/><g id="B"><use transform="matrix(0.008072916666666667,0,0,0.008072916666666667,0,0)" xlink:href="#am"/><use transform="matrix(0.008072916666666667,0,0,0.008072916666666667,10.123437500000001,0)" xlink:href="#ag"/><use transform="matrix(0.008072916666666667,0,0,0.008072916666666667,20.03697916666667,0)" xlink:href="#ag"/><use transform="matrix(0.008072916666666667,0,0,0.008072916666666667,29.950520833333336,0)" xlink:href="#aj"/><use transform="matrix(0.008072916666666667,0,0,0.008072916666666667,38.08802083333333,0)" xlink:href="#aS"/><use transform="matrix(0.008072916666666667,0,0,0.008072916666666667,48.760416666666664,0)" xlink:href="#al"/><use transform="matrix(0.008072916666666667,0,0,0.008072916666666667,52.764583333333334,0)" xlink:href="#av"/><use transform="matrix(0.008072916666666667,0,0,0.008072916666666667,58.1734375,0)" xlink:href="#ak"/><use transform="matrix(0.008072916666666667,0,0,0.008072916666666667,62.17760416666667,0)" xlink:href="#as"/></g><g id="C"><use transform="matrix(0.008072916666666667,0,0,0.008072916666666667,0,0)" xlink:href="#aK"/><use transform="matrix(0.008072916666666667,0,0,0.008072916666666667,10.139583333333334,0)" xlink:href="#as"/><use transform="matrix(0.008072916666666667,0,0,0.008072916666666667,19.778645833333336,0)" xlink:href="#av"/><use transform="matrix(0.008072916666666667,0,0,0.008072916666666667,24.630468750000002,0)" xlink:href="#aS"/><use transform="matrix(0.008072916666666667,0,0,0.008072916666666667,35.30286458333334,0)" xlink:href="#al"/><use transform="matrix(0.008072916666666667,0,0,0.008072916666666667,39.30703125000001,0)" xlink:href="#av"/><use transform="matrix(0.008072916666666667,0,0,0.008072916666666667,44.71588541666667,0)" xlink:href="#ak"/><use transform="matrix(0.008072916666666667,0,0,0.008072916666666667,48.72005208333334,0)" xlink:href="#as"/><use transform="matrix(0.008072916666666667,0,0,0.008072916666666667,58.359114583333344,0)" xlink:href="#aE"/><use transform="matrix(0.008072916666666667,0,0,0.008072916666666667,64.38958333333335,0)" xlink:href="#aH"/></g><path d="M645 0H180v-1490h484c435 0 692 280 692 742 0 466-257 748-711 748zM370-168h263c363 0 539-218 539-580 0-358-176-574-521-574H370v1154" id="aT"/><g id="E"><use transform="matrix(0.008072916666666667,0,0,0.008072916666666667,0,0)" xlink:href="#am"/><use transform="matrix(0.008072916666666667,0,0,0.008072916666666667,10.123437500000001,0)" xlink:href="#ag"/><use transform="matrix(0.008072916666666667,0,0,0.008072916666666667,20.03697916666667,0)" xlink:href="#ag"/><use transform="matrix(0.008072916666666667,0,0,0.008072916666666667,29.950520833333336,0)" xlink:href="#aj"/><use transform="matrix(0.008072916666666667,0,0,0.008072916666666667,38.08802083333333,0)" xlink:href="#aS"/><use transform="matrix(0.008072916666666667,0,0,0.008072916666666667,48.760416666666664,0)" xlink:href="#al"/><use transform="matrix(0.008072916666666667,0,0,0.008072916666666667,52.764583333333334,0)" xlink:href="#av"/><use transform="matrix(0.008072916666666667,0,0,0.008072916666666667,58.1734375,0)" xlink:href="#ak"/><use transform="matrix(0.008072916666666667,0,0,0.008072916666666667,62.17760416666667,0)" xlink:href="#as"/><use transform="matrix(0.008072916666666667,0,0,0.008072916666666667,71.81666666666666,0)" xlink:href="#aQ"/><use transform="matrix(0.008072916666666667,0,0,0.008072916666666667,76.57968749999999,0)" xlink:href="#as"/><use transform="matrix(0.008072916666666667,0,0,0.008072916666666667,86.21875,0)" xlink:href="#aR"/><use transform="matrix(0.008072916666666667,0,0,0.008072916666666667,96.3421875,0)" xlink:href="#aP"/><use transform="matrix(0.008072916666666667,0,0,0.008072916666666667,106.11848958333333,0)" xlink:href="#an"/><use transform="matrix(0.008072916666666667,0,0,0.008072916666666667,115.40234375,0)" xlink:href="#ak"/><use transform="matrix(0.008072916666666667,0,0,0.008072916666666667,119.40651041666666,0)" xlink:href="#at"/><use transform="matrix(0.008072916666666667,0,0,0.008072916666666667,128.13333333333333,0)" xlink:href="#aE"/><use transform="matrix(0.008072916666666667,0,0,0.008072916666666667,134.16380208333334,0)" xlink:href="#aF"/><use transform="matrix(0.008072916666666667,0,0,0.008072916666666667,141.86536458333333,0)" xlink:href="#aT"/><use transform="matrix(0.008072916666666667,0,0,0.008072916666666667,153.79713541666666,0)" xlink:href="#aP"/><use transform="matrix(0.008072916666666667,0,0,0.008072916666666667,163.5734375,0)" xlink:href="#az"/><use transform="matrix(0.008072916666666667,0,0,0.008072916666666667,173.34166666666667,0)" xlink:href="#as"/><use transform="matrix(0.008072916666666667,0,0,0.008072916666666667,182.73854166666666,0)" xlink:href="#aF"/><use transform="matrix(0.008072916666666667,0,0,0.008072916666666667,190.44010416666666,0)" xlink:href="#aH"/><use transform="matrix(0.0087890625,0,0,0.0087890625,196.47057291666667,0)" xlink:href="#aO"/></g><g id="F"><use transform="matrix(0.008072916666666667,0,0,0.008072916666666667,0,0)" xlink:href="#aG"/><use transform="matrix(0.008072916666666667,0,0,0.008072916666666667,9.606770833333336,0)" xlink:href="#an"/><use transform="matrix(0.008072916666666667,0,0,0.008072916666666667,18.890625000000004,0)" xlink:href="#av"/><use transform="matrix(0.008072916666666667,0,0,0.008072916666666667,24.38020833333334,0)" xlink:href="#an"/><use transform="matrix(0.008072916666666667,0,0,0.008072916666666667,33.664062500000014,0)" xlink:href="#ak"/><use transform="matrix(0.008072916666666667,0,0,0.008072916666666667,37.66822916666668,0)" xlink:href="#ag"/><use transform="matrix(0.008072916666666667,0,0,0.008072916666666667,47.581770833333344,0)" xlink:href="#aK"/><use transform="matrix(0.008072916666666667,0,0,0.008072916666666667,57.72135416666668,0)" xlink:href="#ap"/><use transform="matrix(0.008072916666666667,0,0,0.008072916666666667,62.484375000000014,0)" xlink:href="#au"/><use transform="matrix(0.008072916666666667,0,0,0.008072916666666667,73.89140625000002,0)" xlink:href="#ah"/><use transform="matrix(0.008072916666666667,0,0,0.008072916666666667,80.37395833333336,0)" xlink:href="#ah"/><use transform="matrix(0.008072916666666667,0,0,0.008072916666666667,86.59817708333337,0)" xlink:href="#an"/><use transform="matrix(0.008072916666666667,0,0,0.008072916666666667,95.63984375000004,0)" xlink:href="#ao"/><use transform="matrix(0.008072916666666667,0,0,0.008072916666666667,105.01250000000005,0)" xlink:href="#aq"/><use transform="matrix(0.008072916666666667,0,0,0.008072916666666667,114.36093750000006,0)" xlink:href="#al"/><use transform="matrix(0.008072916666666667,0,0,0.008072916666666667,118.36510416666671,0)" xlink:href="#at"/><use transform="matrix(0.008072916666666667,0,0,0.008072916666666667,127.09192708333337,0)" xlink:href="#av"/><use transform="matrix(0.008072916666666667,0,0,0.008072916666666667,132.03255208333337,0)" xlink:href="#aw"/><use transform="matrix(0.008072916666666667,0,0,0.008072916666666667,142.9713541666667,0)" xlink:href="#af"/><use transform="matrix(0.008072916666666667,0,0,0.008072916666666667,153.78906250000006,0)" xlink:href="#ag"/><use transform="matrix(0.008072916666666667,0,0,0.008072916666666667,163.70260416666673,0)" xlink:href="#ag"/><use transform="matrix(0.008072916666666667,0,0,0.008072916666666667,173.6161458333334,0)" xlink:href="#aj"/><use transform="matrix(0.008072916666666667,0,0,0.008072916666666667,182.69010416666674,0)" xlink:href="#ay"/></g><g id="G"><use transform="matrix(0.008072916666666667,0,0,0.008072916666666667,0,0)" xlink:href="#am"/><use transform="matrix(0.008072916666666667,0,0,0.008072916666666667,10.123437500000001,0)" xlink:href="#ap"/><use transform="matrix(0.008072916666666667,0,0,0.008072916666666667,14.886458333333335,0)" xlink:href="#af"/><use transform="matrix(0.008072916666666667,0,0,0.008072916666666667,25.70416666666667,0)" xlink:href="#ag"/><use transform="matrix(0.008072916666666667,0,0,0.008072916666666667,35.61770833333334,0)" xlink:href="#ag"/><use transform="matrix(0.008072916666666667,0,0,0.008072916666666667,45.53125000000001,0)" xlink:href="#aj"/></g><g id="H"><use transform="matrix(0.007595486111111112,0,0,0.007595486111111112,0,0)" xlink:href="#aB"/><use transform="matrix(0.007595486111111112,0,0,0.007595486111111112,5.757378472222223,0)" xlink:href="#al"/><use transform="matrix(0.007595486111111112,0,0,0.007595486111111112,9.524739583333336,0)" xlink:href="#az"/><use transform="matrix(0.007595486111111112,0,0,0.007595486111111112,18.71527777777778,0)" xlink:href="#aC"/><use transform="matrix(0.007595486111111112,0,0,0.007595486111111112,28.240017361111114,0)" xlink:href="#af"/><use transform="matrix(0.007595486111111112,0,0,0.007595486111111112,38.41796875,0)" xlink:href="#ag"/><use transform="matrix(0.007595486111111112,0,0,0.007595486111111112,47.74522569444444,0)" xlink:href="#ag"/><use transform="matrix(0.007595486111111112,0,0,0.007595486111111112,57.072482638888886,0)" xlink:href="#aj"/><use transform="matrix(0.007595486111111112,0,0,0.007595486111111112,65.60980902777777,0)" xlink:href="#af"/><use transform="matrix(0.007595486111111112,0,0,0.007595486111111112,75.78776041666666,0)" xlink:href="#ao"/><use transform="matrix(0.007595486111111112,0,0,0.007595486111111112,84.00607638888887,0)" xlink:href="#aS"/><use transform="matrix(0.007595486111111112,0,0,0.007595486111111112,94.04730902777776,0)" xlink:href="#al"/><use transform="matrix(0.007595486111111112,0,0,0.007595486111111112,97.81467013888887,0)" xlink:href="#av"/><use transform="matrix(0.007595486111111112,0,0,0.007595486111111112,102.90364583333331,0)" xlink:href="#ak"/><use transform="matrix(0.007595486111111112,0,0,0.007595486111111112,106.67100694444443,0)" xlink:href="#as"/><use transform="matrix(0.007595486111111112,0,0,0.007595486111111112,115.7400173611111,0)" xlink:href="#aE"/><use transform="matrix(0.007595486111111112,0,0,0.007595486111111112,121.4138454861111,0)" xlink:href="#aF"/><use transform="matrix(0.007595486111111112,0,0,0.007595486111111112,128.65993923611111,0)" xlink:href="#aT"/><use transform="matrix(0.007595486111111112,0,0,0.007595486111111112,139.88606770833334,0)" xlink:href="#aP"/><use transform="matrix(0.007595486111111112,0,0,0.007595486111111112,149.0842013888889,0)" xlink:href="#az"/><use transform="matrix(0.007595486111111112,0,0,0.007595486111111112,158.27473958333337,0)" xlink:href="#as"/><use transform="matrix(0.007595486111111112,0,0,0.007595486111111112,167.11588541666669,0)" xlink:href="#aF"/><use transform="matrix(0.007595486111111112,0,0,0.007595486111111112,174.36197916666669,0)" xlink:href="#aH"/></g><path d="M128 359l88-567h206L266 359H128" id="aU"/><g id="I"><use transform="matrix(0.008072916666666667,0,0,0.008072916666666667,0,0)" xlink:href="#am"/><use transform="matrix(0.008072916666666667,0,0,0.008072916666666667,10.123437500000001,0)" xlink:href="#ag"/><use transform="matrix(0.008072916666666667,0,0,0.008072916666666667,20.03697916666667,0)" xlink:href="#ah"/><use transform="matrix(0.008072916666666667,0,0,0.008072916666666667,26.51953125,0)" xlink:href="#ah"/><use transform="matrix(0.008072916666666667,0,0,0.008072916666666667,32.46927083333333,0)" xlink:href="#ag"/><use transform="matrix(0.008072916666666667,0,0,0.008072916666666667,42.08411458333333,0)" xlink:href="#ai"/><use transform="matrix(0.008072916666666667,0,0,0.008072916666666667,55.614322916666666,0)" xlink:href="#af"/><use transform="matrix(0.008072916666666667,0,0,0.008072916666666667,66.43203125,0)" xlink:href="#ag"/><use transform="matrix(0.008072916666666667,0,0,0.008072916666666667,76.34557291666667,0)" xlink:href="#ag"/><use transform="matrix(0.008072916666666667,0,0,0.008072916666666667,86.25911458333334,0)" xlink:href="#aj"/><use transform="matrix(0.008072916666666667,0,0,0.008072916666666667,95.33307291666668,0)" xlink:href="#af"/><use transform="matrix(0.008072916666666667,0,0,0.008072916666666667,106.15078125000001,0)" xlink:href="#ao"/><use transform="matrix(0.008072916666666667,0,0,0.008072916666666667,115.52343750000001,0)" xlink:href="#ax"/><use transform="matrix(0.008072916666666667,0,0,0.008072916666666667,130.45833333333334,0)" xlink:href="#as"/><use transform="matrix(0.008072916666666667,0,0,0.008072916666666667,140.09739583333334,0)" xlink:href="#ar"/><use transform="matrix(0.008072916666666667,0,0,0.008072916666666667,154.58020833333333,0)" xlink:href="#am"/><use transform="matrix(0.008072916666666667,0,0,0.008072916666666667,164.70364583333333,0)" xlink:href="#as"/><use transform="matrix(0.008072916666666667,0,0,0.008072916666666667,174.34270833333332,0)" xlink:href="#ah"/><use transform="matrix(0.008072916666666667,0,0,0.008072916666666667,180.56692708333333,0)" xlink:href="#aE"/><use transform="matrix(0.008072916666666667,0,0,0.008072916666666667,186.5973958333333,0)" xlink:href="#aF"/><use transform="matrix(0.008072916666666667,0,0,0.008072916666666667,194.29895833333333,0)" xlink:href="#aT"/><use transform="matrix(0.008072916666666667,0,0,0.008072916666666667,206.23072916666666,0)" xlink:href="#aP"/><use transform="matrix(0.008072916666666667,0,0,0.008072916666666667,216.00703125,0)" xlink:href="#az"/><use transform="matrix(0.008072916666666667,0,0,0.008072916666666667,225.77526041666667,0)" xlink:href="#as"/><use transform="matrix(0.008072916666666667,0,0,0.008072916666666667,235.17213541666666,0)" xlink:href="#aF"/><use transform="matrix(0.008072916666666667,0,0,0.008072916666666667,241.51744791666667,0)" xlink:href="#aU"/></g><g id="J"><use transform="matrix(0.008072916666666667,0,0,0.008072916666666667,0,0)" xlink:href="#aF"/><use transform="matrix(0.008072916666666667,0,0,0.008072916666666667,6.393750000000001,0)" xlink:href="#au"/><use transform="matrix(0.008072916666666667,0,0,0.008072916666666667,17.800781250000004,0)" xlink:href="#ak"/><use transform="matrix(0.008072916666666667,0,0,0.008072916666666667,21.804947916666666,0)" xlink:href="#al"/><use transform="matrix(0.008072916666666667,0,0,0.008072916666666667,25.809114583333333,0)" xlink:href="#aG"/><use transform="matrix(0.008072916666666667,0,0,0.008072916666666667,35.25442708333333,0)" xlink:href="#as"/><use transform="matrix(0.008072916666666667,0,0,0.008072916666666667,44.651302083333334,0)" xlink:href="#aF"/><use transform="matrix(0.008072916666666667,0,0,0.008072916666666667,52.352864583333336,0)" xlink:href="#aH"/></g><g id="K"><use transform="matrix(0.0087890625,0,0,0.0087890625,0,0)" xlink:href="#au"/><use transform="matrix(0.0087890625,0,0,0.0087890625,12.4189453125,0)" xlink:href="#ak"/><use transform="matrix(0.0087890625,0,0,0.0087890625,17.0419921875,0)" xlink:href="#av"/></g><g id="M"><use transform="matrix(0.010850694444444444,0,0,0.010850694444444444,0,0)" xlink:href="#aM"/><use transform="matrix(0.010850694444444444,0,0,0.010850694444444444,8.10546875,0)" xlink:href="#am"/><use transform="matrix(0.010850694444444444,0,0,0.010850694444444444,21.712239583333332,0)" xlink:href="#ag"/><use transform="matrix(0.010850694444444444,0,0,0.010850694444444444,35.03689236111111,0)" xlink:href="#ag"/><use transform="matrix(0.010850694444444444,0,0,0.010850694444444444,48.361545138888886,0)" xlink:href="#aj"/></g><g id="N"><use transform="matrix(0.010850694444444444,0,0,0.010850694444444444,0,0)" xlink:href="#an"/><use transform="matrix(0.010850694444444444,0,0,0.010850694444444444,12.47829861111111,0)" xlink:href="#az"/><use transform="matrix(0.010850694444444444,0,0,0.010850694444444444,25.60763888888889,0)" xlink:href="#aC"/></g><g id="O"><use transform="matrix(0.010850694444444444,0,0,0.010850694444444444,0,0)" xlink:href="#ar"/><use transform="matrix(0.010850694444444444,0,0,0.010850694444444444,19.466145833333332,0)" xlink:href="#as"/><use transform="matrix(0.010850694444444444,0,0,0.010850694444444444,32.421875,0)" xlink:href="#ar"/><use transform="matrix(0.010850694444444444,0,0,0.010850694444444444,51.88802083333333,0)" xlink:href="#am"/><use transform="matrix(0.010850694444444444,0,0,0.010850694444444444,65.49479166666666,0)" xlink:href="#as"/><use transform="matrix(0.010850694444444444,0,0,0.010850694444444444,78.45052083333333,0)" xlink:href="#ah"/></g><g id="P"><use transform="matrix(0.010850694444444444,0,0,0.010850694444444444,0,0)" xlink:href="#al"/><use transform="matrix(0.010850694444444444,0,0,0.010850694444444444,5.381944444444445,0)" xlink:href="#at"/></g><g id="Q"><use transform="matrix(0.010850694444444444,0,0,0.010850694444444444,0,0)" xlink:href="#az"/><use transform="matrix(0.010850694444444444,0,0,0.010850694444444444,13.129340277777777,0)" xlink:href="#ag"/><use transform="matrix(0.010850694444444444,0,0,0.010850694444444444,26.453993055555554,0)" xlink:href="#av"/></g><g id="R"><use transform="matrix(0.010850694444444444,0,0,0.010850694444444444,0,0)" xlink:href="#az"/><use transform="matrix(0.010850694444444444,0,0,0.010850694444444444,13.129340277777777,0)" xlink:href="#aP"/><use transform="matrix(0.010850694444444444,0,0,0.010850694444444444,26.26953125,0)" xlink:href="#ak"/><use transform="matrix(0.010850694444444444,0,0,0.010850694444444444,31.651475694444443,0)" xlink:href="#ak"/><use transform="matrix(0.010850694444444444,0,0,0.010850694444444444,37.033420138888886,0)" xlink:href="#aO"/></g><g id="S"><use transform="matrix(0.008072916666666667,0,0,0.008072916666666667,0,0)" xlink:href="#ar"/><use transform="matrix(0.008072916666666667,0,0,0.008072916666666667,14.482812500000001,0)" xlink:href="#as"/><use transform="matrix(0.008072916666666667,0,0,0.008072916666666667,24.121875000000003,0)" xlink:href="#ar"/><use transform="matrix(0.008072916666666667,0,0,0.008072916666666667,38.604687500000004,0)" xlink:href="#am"/><use transform="matrix(0.008072916666666667,0,0,0.008072916666666667,48.728125000000006,0)" xlink:href="#as"/><use transform="matrix(0.008072916666666667,0,0,0.008072916666666667,58.36718750000001,0)" xlink:href="#ah"/><use transform="matrix(0.008072916666666667,0,0,0.008072916666666667,64.59140625,0)" xlink:href="#ap"/><use transform="matrix(0.008072916666666667,0,0,0.008072916666666667,69.35442708333333,0)" xlink:href="#ax"/><use transform="matrix(0.008072916666666667,0,0,0.008072916666666667,84.28932291666666,0)" xlink:href="#as"/><use transform="matrix(0.008072916666666667,0,0,0.008072916666666667,93.92838541666666,0)" xlink:href="#ar"/><use transform="matrix(0.008072916666666667,0,0,0.008072916666666667,108.41119791666665,0)" xlink:href="#am"/><use transform="matrix(0.008072916666666667,0,0,0.008072916666666667,118.53463541666665,0)" xlink:href="#as"/><use transform="matrix(0.008072916666666667,0,0,0.008072916666666667,128.17369791666664,0)" xlink:href="#ah"/></g><g id="T"><use transform="matrix(0.008072916666666667,0,0,0.008072916666666667,0,0)" xlink:href="#am"/><use transform="matrix(0.008072916666666667,0,0,0.008072916666666667,10.123437500000001,0)" xlink:href="#ag"/><use transform="matrix(0.008072916666666667,0,0,0.008072916666666667,20.03697916666667,0)" xlink:href="#ah"/><use transform="matrix(0.008072916666666667,0,0,0.008072916666666667,26.51953125,0)" xlink:href="#ah"/><use transform="matrix(0.008072916666666667,0,0,0.008072916666666667,32.46927083333333,0)" xlink:href="#ag"/><use transform="matrix(0.008072916666666667,0,0,0.008072916666666667,42.08411458333333,0)" xlink:href="#ai"/><use transform="matrix(0.008072916666666667,0,0,0.008072916666666667,55.315625,0)" xlink:href="#as"/><use transform="matrix(0.008072916666666667,0,0,0.008072916666666667,64.9546875,0)" xlink:href="#aC"/><use transform="matrix(0.008072916666666667,0,0,0.008072916666666667,75.07812499999999,0)" xlink:href="#af"/><use transform="matrix(0.008072916666666667,0,0,0.008072916666666667,85.89583333333333,0)" xlink:href="#ag"/><use transform="matrix(0.008072916666666667,0,0,0.008072916666666667,95.80937499999999,0)" xlink:href="#ag"/><use transform="matrix(0.008072916666666667,0,0,0.008072916666666667,105.72291666666666,0)" xlink:href="#aj"/><use transform="matrix(0.008072916666666667,0,0,0.008072916666666667,114.796875,0)" xlink:href="#at"/><use transform="matrix(0.008072916666666667,0,0,0.008072916666666667,123.52369791666666,0)" xlink:href="#ap"/><use transform="matrix(0.008072916666666667,0,0,0.008072916666666667,128.28671875,0)" xlink:href="#au"/><use transform="matrix(0.008072916666666667,0,0,0.008072916666666667,139.69375,0)" xlink:href="#ah"/><use transform="matrix(0.008072916666666667,0,0,0.008072916666666667,146.17630208333333,0)" xlink:href="#ah"/><use transform="matrix(0.008072916666666667,0,0,0.008072916666666667,152.40052083333333,0)" xlink:href="#an"/><use transform="matrix(0.008072916666666667,0,0,0.008072916666666667,161.4421875,0)" xlink:href="#ao"/><use transform="matrix(0.008072916666666667,0,0,0.008072916666666667,170.81484374999997,0)" xlink:href="#aq"/><use transform="matrix(0.008072916666666667,0,0,0.008072916666666667,180.16328124999995,0)" xlink:href="#al"/><use transform="matrix(0.008072916666666667,0,0,0.008072916666666667,184.16744791666662,0)" xlink:href="#at"/><use transform="matrix(0.008072916666666667,0,0,0.008072916666666667,192.89427083333328,0)" xlink:href="#av"/><use transform="matrix(0.008072916666666667,0,0,0.008072916666666667,197.83489583333326,0)" xlink:href="#aw"/><use transform="matrix(0.008072916666666667,0,0,0.008072916666666667,208.7736979166666,0)" xlink:href="#af"/><use transform="matrix(0.008072916666666667,0,0,0.008072916666666667,219.59140624999998,0)" xlink:href="#ag"/><use transform="matrix(0.008072916666666667,0,0,0.008072916666666667,229.50494791666662,0)" xlink:href="#ag"/><use transform="matrix(0.008072916666666667,0,0,0.008072916666666667,239.4184895833333,0)" xlink:href="#aj"/><use transform="matrix(0.008072916666666667,0,0,0.008072916666666667,248.49244791666663,0)" xlink:href="#ay"/></g><g id="U"><use transform="matrix(0.008072916666666667,0,0,0.008072916666666667,0,0)" xlink:href="#am"/><use transform="matrix(0.008072916666666667,0,0,0.008072916666666667,10.123437500000001,0)" xlink:href="#ag"/><use transform="matrix(0.008072916666666667,0,0,0.008072916666666667,20.03697916666667,0)" xlink:href="#ah"/><use transform="matrix(0.008072916666666667,0,0,0.008072916666666667,26.51953125,0)" xlink:href="#ah"/><use transform="matrix(0.008072916666666667,0,0,0.008072916666666667,32.46927083333333,0)" xlink:href="#ag"/><use transform="matrix(0.008072916666666667,0,0,0.008072916666666667,42.08411458333333,0)" xlink:href="#ai"/><use transform="matrix(0.008072916666666667,0,0,0.008072916666666667,55.614322916666666,0)" xlink:href="#af"/><use transform="matrix(0.008072916666666667,0,0,0.008072916666666667,66.43203125,0)" xlink:href="#ag"/><use transform="matrix(0.008072916666666667,0,0,0.008072916666666667,76.34557291666667,0)" xlink:href="#ag"/><use transform="matrix(0.008072916666666667,0,0,0.008072916666666667,86.25911458333334,0)" xlink:href="#aj"/><use transform="matrix(0.008072916666666667,0,0,0.008072916666666667,95.33307291666668,0)" xlink:href="#aE"/><use transform="matrix(0.008072916666666667,0,0,0.008072916666666667,101.36354166666668,0)" xlink:href="#am"/><use transform="matrix(0.008072916666666667,0,0,0.008072916666666667,111.48697916666669,0)" xlink:href="#ag"/><use transform="matrix(0.008072916666666667,0,0,0.008072916666666667,121.40052083333336,0)" xlink:href="#ag"/><use transform="matrix(0.008072916666666667,0,0,0.008072916666666667,131.31406250000003,0)" xlink:href="#aj"/><use transform="matrix(0.008072916666666667,0,0,0.008072916666666667,140.38802083333337,0)" xlink:href="#aH"/></g><path d="M481 0L54-1118h197c107 314 236 620 325 951 87-331 217-637 324-951h197L670 0H481" id="aV"/><g id="V"><use transform="matrix(0.008072916666666667,0,0,0.008072916666666667,0,0)" xlink:href="#aK"/><use transform="matrix(0.008072916666666667,0,0,0.008072916666666667,10.139583333333334,0)" xlink:href="#as"/><use transform="matrix(0.008072916666666667,0,0,0.008072916666666667,19.778645833333336,0)" xlink:href="#av"/><use transform="matrix(0.008072916666666667,0,0,0.008072916666666667,25.187500000000004,0)" xlink:href="#aL"/><use transform="matrix(0.008072916666666667,0,0,0.008072916666666667,29.62760416666667,0)" xlink:href="#at"/><use transform="matrix(0.008072916666666667,0,0,0.008072916666666667,38.35442708333334,0)" xlink:href="#au"/><use transform="matrix(0.008072916666666667,0,0,0.008072916666666667,48.63932291666668,0)" xlink:href="#aV"/><use transform="matrix(0.008072916666666667,0,0,0.008072916666666667,57.85052083333335,0)" xlink:href="#an"/><use transform="matrix(0.008072916666666667,0,0,0.008072916666666667,67.13437500000002,0)" xlink:href="#al"/><use transform="matrix(0.008072916666666667,0,0,0.008072916666666667,71.13854166666668,0)" xlink:href="#ak"/><use transform="matrix(0.008072916666666667,0,0,0.008072916666666667,75.14270833333335,0)" xlink:href="#an"/><use transform="matrix(0.008072916666666667,0,0,0.008072916666666667,84.42656250000002,0)" xlink:href="#am"/><use transform="matrix(0.008072916666666667,0,0,0.008072916666666667,94.55000000000001,0)" xlink:href="#ak"/><use transform="matrix(0.008072916666666667,0,0,0.008072916666666667,98.55416666666667,0)" xlink:href="#as"/><use transform="matrix(0.008072916666666667,0,0,0.008072916666666667,108.19322916666667,0)" xlink:href="#aE"/><use transform="matrix(0.008072916666666667,0,0,0.008072916666666667,114.22369791666667,0)" xlink:href="#aH"/></g><g id="W"><use transform="matrix(0.008072916666666667,0,0,0.008072916666666667,0,0)" xlink:href="#al"/><use transform="matrix(0.008072916666666667,0,0,0.008072916666666667,4.004166666666667,0)" xlink:href="#at"/><use transform="matrix(0.008072916666666667,0,0,0.008072916666666667,12.730989583333336,0)" xlink:href="#au"/><use transform="matrix(0.008072916666666667,0,0,0.008072916666666667,23.01588541666667,0)" xlink:href="#aV"/><use transform="matrix(0.008072916666666667,0,0,0.008072916666666667,32.22708333333334,0)" xlink:href="#an"/><use transform="matrix(0.008072916666666667,0,0,0.008072916666666667,41.51093750000001,0)" xlink:href="#al"/><use transform="matrix(0.008072916666666667,0,0,0.008072916666666667,45.51510416666668,0)" xlink:href="#ak"/><use transform="matrix(0.008072916666666667,0,0,0.008072916666666667,49.51927083333335,0)" xlink:href="#an"/><use transform="matrix(0.008072916666666667,0,0,0.008072916666666667,58.80312500000002,0)" xlink:href="#am"/><use transform="matrix(0.008072916666666667,0,0,0.008072916666666667,68.92656250000002,0)" xlink:href="#ak"/><use transform="matrix(0.008072916666666667,0,0,0.008072916666666667,72.93072916666668,0)" xlink:href="#as"/></g><g id="Y"><use transform="matrix(0.0087890625,0,0,0.0087890625,0,0)" xlink:href="#aM"/><use transform="matrix(0.0087890625,0,0,0.0087890625,6.5654296875,0)" xlink:href="#am"/><use transform="matrix(0.0087890625,0,0,0.0087890625,17.5869140625,0)" xlink:href="#ag"/><use transform="matrix(0.0087890625,0,0,0.0087890625,28.3798828125,0)" xlink:href="#ag"/><use transform="matrix(0.0087890625,0,0,0.0087890625,39.1728515625,0)" xlink:href="#aj"/></g><g id="Z"><use transform="matrix(0.0087890625,0,0,0.0087890625,0,0)" xlink:href="#al"/><use transform="matrix(0.0087890625,0,0,0.0087890625,4.359375,0)" xlink:href="#at"/></g><g id="aa"><use transform="matrix(0.0087890625,0,0,0.0087890625,0,0)" xlink:href="#az"/><use transform="matrix(0.0087890625,0,0,0.0087890625,10.634765625,0)" xlink:href="#ag"/><use transform="matrix(0.0087890625,0,0,0.0087890625,21.427734375,0)" xlink:href="#av"/></g><g id="ab"><use transform="matrix(0.0087890625,0,0,0.0087890625,0,0)" xlink:href="#az"/><use transform="matrix(0.0087890625,0,0,0.0087890625,10.634765625,0)" xlink:href="#aP"/><use transform="matrix(0.0087890625,0,0,0.0087890625,21.2783203125,0)" xlink:href="#ak"/><use transform="matrix(0.0087890625,0,0,0.0087890625,25.6376953125,0)" xlink:href="#ak"/><use transform="matrix(0.0087890625,0,0,0.0087890625,29.9970703125,0)" xlink:href="#aO"/></g><g id="ac"><use transform="matrix(0.0087890625,0,0,0.0087890625,0,0)" xlink:href="#aM"/><use transform="matrix(0.0087890625,0,0,0.0087890625,6.5654296875,0)" xlink:href="#al"/><use transform="matrix(0.0087890625,0,0,0.0087890625,10.9248046875,0)" xlink:href="#at"/><use transform="matrix(0.0087890625,0,0,0.0087890625,20.42578125,0)" xlink:href="#au"/><use transform="matrix(0.0087890625,0,0,0.0087890625,31.623046875,0)" xlink:href="#aV"/><use transform="matrix(0.0087890625,0,0,0.0087890625,41.6513671875,0)" xlink:href="#an"/><use transform="matrix(0.0087890625,0,0,0.0087890625,51.7587890625,0)" xlink:href="#al"/><use transform="matrix(0.0087890625,0,0,0.0087890625,56.1181640625,0)" xlink:href="#ak"/><use transform="matrix(0.0087890625,0,0,0.0087890625,60.4775390625,0)" xlink:href="#an"/><use transform="matrix(0.0087890625,0,0,0.0087890625,70.5849609375,0)" xlink:href="#am"/><use transform="matrix(0.0087890625,0,0,0.0087890625,81.6064453125,0)" xlink:href="#ak"/><use transform="matrix(0.0087890625,0,0,0.0087890625,85.9658203125,0)" xlink:href="#as"/><use transform="matrix(0.0087890625,0,0,0.0087890625,96.2578125,0)" xlink:href="#aO"/></g><g id="ad"><use transform="matrix(0.008680555555555556,0,0,0.008680555555555556,0,0)" xlink:href="#at"/><use transform="matrix(0.008680555555555556,0,0,0.008680555555555556,9.383680555555555,0)" xlink:href="#as"/><use transform="matrix(0.008680555555555556,0,0,0.008680555555555556,19.74826388888889,0)" xlink:href="#av"/><use transform="matrix(0.008680555555555556,0,0,0.008680555555555556,25.56423611111111,0)" xlink:href="#aL"/><use transform="matrix(0.008680555555555556,0,0,0.008680555555555556,30.338541666666664,0)" xlink:href="#at"/><use transform="matrix(0.008680555555555556,0,0,0.008680555555555556,39.72222222222222,0)" xlink:href="#au"/><use transform="matrix(0.008680555555555556,0,0,0.008680555555555556,50.78125,0)" xlink:href="#aV"/><use transform="matrix(0.008680555555555556,0,0,0.008680555555555556,60.685763888888886,0)" xlink:href="#an"/><use transform="matrix(0.008680555555555556,0,0,0.008680555555555556,70.66840277777777,0)" xlink:href="#al"/><use transform="matrix(0.008680555555555556,0,0,0.008680555555555556,74.97395833333331,0)" xlink:href="#ak"/><use transform="matrix(0.008680555555555556,0,0,0.008680555555555556,79.27951388888889,0)" xlink:href="#an"/><use transform="matrix(0.008680555555555556,0,0,0.008680555555555556,89.26215277777777,0)" xlink:href="#am"/><use transform="matrix(0.008680555555555556,0,0,0.008680555555555556,100.14756944444444,0)" xlink:href="#ak"/><use transform="matrix(0.008680555555555556,0,0,0.008680555555555556,104.453125,0)" xlink:href="#as"/><use transform="matrix(0.008680555555555556,0,0,0.008680555555555556,114.81770833333333,0)" xlink:href="#aE"/><use transform="matrix(0.008680555555555556,0,0,0.008680555555555556,121.30208333333333,0)" xlink:href="#aB"/><use transform="matrix(0.008680555555555556,0,0,0.008680555555555556,127.60416666666667,0)" xlink:href="#an"/><use transform="matrix(0.008680555555555556,0,0,0.008680555555555556,137.58680555555557,0)" xlink:href="#ak"/><use transform="matrix(0.008680555555555556,0,0,0.008680555555555556,141.89236111111111,0)" xlink:href="#at"/><use transform="matrix(0.008680555555555556,0,0,0.008680555555555556,151.27604166666663,0)" xlink:href="#as"/><use transform="matrix(0.008680555555555556,0,0,0.008680555555555556,161.44097222222223,0)" xlink:href="#aH"/></g><g id="ae"><use transform="matrix(0.007595486111111112,0,0,0.007595486111111112,0,0)" xlink:href="#an"/><use transform="matrix(0.007595486111111112,0,0,0.007595486111111112,8.734809027777779,0)" xlink:href="#aC"/><use transform="matrix(0.007595486111111112,0,0,0.007595486111111112,18.259548611111114,0)" xlink:href="#aC"/><use transform="matrix(0.007595486111111112,0,0,0.007595486111111112,27.78428819444445,0)" xlink:href="#aE"/><use transform="matrix(0.007595486111111112,0,0,0.007595486111111112,33.45811631944445,0)" xlink:href="#am"/><use transform="matrix(0.007595486111111112,0,0,0.007595486111111112,42.982855902777786,0)" xlink:href="#ag"/><use transform="matrix(0.007595486111111112,0,0,0.007595486111111112,52.31011284722223,0)" xlink:href="#ag"/><use transform="matrix(0.007595486111111112,0,0,0.007595486111111112,61.63736979166667,0)" xlink:href="#aj"/><use transform="matrix(0.007595486111111112,0,0,0.007595486111111112,70.17469618055556,0)" xlink:href="#aH"/></g></defs></g></svg>